<svg width="78" height="78" viewBox="0 0 78 78" fill="none" xmlns="http://www.w3.org/2000/svg">
<path d="M60.6835 35.976C59.7955 39.88 58.9995 41 56.4756 41C53.1616 41 50.7177 38.702 50.7177 35.962C50.7177 33.222 53.4036 31 56.7176 31C60.6355 31 61.5894 31.994 60.6835 35.976ZM17.3165 35.976C18.2045 39.88 19.0005 41 21.5244 41C24.8384 41 27.2823 38.702 27.2823 35.962C27.2823 33.222 24.5964 31 21.2824 31C17.3645 31 16.4106 31.994 17.3165 35.976Z" fill="#FB8C00"/>
<path d="M65.034 66.242C62.23 62.416 47 56 47 56H39H31C31 56 15.77 62.416 12.966 66.242C9.578 70.866 9 78 9 78H69C69 78 68.422 70.866 65.034 66.242Z" fill="#BF360C"/>
<path d="M31 38V56C31 61.918 39 66 39 66C39 66 47 61.978 47 56V38H31Z" fill="#FB8C00"/>
<path d="M19 26.8723C19 47.2927 29.762 56 39 56V9C27.424 9 19 19.248 19 26.8723ZM59 26.8723C59 47.2927 48.238 56 39 56V9C50.576 9 59 19.248 59 26.8723Z" fill="#FFB74D"/>
<path d="M39 1C27.954 1 17 8.14717 17 19.5C17 28.1909 20.138 38 20.138 38C20.138 38 21 31.4058 21 25.6667C39.334 25.6667 49 15.3889 49 15.3889C49 15.3889 50.5 23.2678 57 25.6667C57.402 34.5302 57.848 38 57.848 38C57.848 38 61 26.8219 61 19.5C61 11.2141 57.062 5.11111 49 5.11111C49 5.11111 45.788 1 39 1Z" fill="#8D6E63"/>
<path d="M51 35.5C51 35.5 49.21 38 47 38C44.79 38 43 35.5 43 35.5C43 35.5 44.79 33 47 33C49.21 33 51 35.5 51 35.5ZM35 35.5C35 35.5 33.21 38 31 38C28.79 38 27 35.5 27 35.5C27 35.5 28.79 33 31 33C33.21 33 35 35.5 35 35.5Z" fill="white"/>
<path d="M36 43C36 43 37.3291 43.5305 39 43.5305C40.6709 43.5305 42 43 42 43C42 43 41.1382 45 39 45C36.8618 45 36 43 36 43Z" fill="#FCA230"/>
<path d="M52 30C52 30 49.786 29.4316 47 29.4316C44.214 29.4316 43 29.4202 43 28.713C43 28.0072 44.42 28 47 28C50.564 28 52 30 52 30ZM26 30C26 30 28.214 29.4316 31 29.4316C33.786 29.4316 35 29.4202 35 28.713C35 28.0072 33.58 28 31 28C27.436 28 26 30 26 30Z" fill="#6D4C41"/>
<path d="M55 46H23C27.0643 52.864 33.3076 56 39 56C44.6924 56 50.9337 52.864 55 46Z" fill="#FFCC80"/>
<path d="M60.2905 76.083L61.9939 53.2368C62.0845 52.0302 61.1603 51 59.9865 51H16.0135C14.8397 51 13.9155 52.0302 14.0061 53.2368L15.7095 76.083C15.79 77.1651 16.6638 78 17.7169 78H58.2831C59.3362 78 60.21 77.1651 60.2905 76.083Z" fill="#B0BEC5"/>
<path d="M38.5 71C40.433 71 42 69.2091 42 67C42 64.7909 40.433 63 38.5 63C36.567 63 35 64.7909 35 67C35 69.2091 36.567 71 38.5 71Z" fill="#B0BEC5"/>
<path d="M33 47C33 47 35.214 47.8525 38 47.8525C40.786 47.8525 43 47 43 47C43 47 40.97 50 38 50C35.03 50 33 47 33 47Z" fill="#FB8C00"/>
<path d="M30.9225 38C31.6232 38 32.2714 37.794 32.8449 37.524C32.6248 36.656 31.8675 36 30.9225 36C29.9774 36 29.2201 36.656 29 37.524C29.5735 37.794 30.2217 38 30.9225 38ZM47.0775 38C47.7783 38 48.4265 37.794 49 37.524C48.7799 36.656 48.0226 36 47.0775 36C46.1325 36 45.3752 36.656 45.1551 37.524C45.7286 37.794 46.3768 38 47.0775 38Z" fill="#3E2723"/>
<path d="M27.6747 66.5455C27.6747 67.7102 27.4616 68.7116 27.0355 69.5497C26.6094 70.3842 26.0252 71.027 25.283 71.478C24.5444 71.9254 23.7045 72.1491 22.7635 72.1491C21.8189 72.1491 20.9755 71.9254 20.2333 71.478C19.4947 71.027 18.9123 70.3825 18.4862 69.5444C18.06 68.7063 17.8469 67.7067 17.8469 66.5455C17.8469 65.3807 18.06 64.381 18.4862 63.5465C18.9123 62.7085 19.4947 62.0657 20.2333 61.6183C20.9755 61.1673 21.8189 60.9418 22.7635 60.9418C23.7045 60.9418 24.5444 61.1673 25.283 61.6183C26.0252 62.0657 26.6094 62.7085 27.0355 63.5465C27.4616 64.381 27.6747 65.3807 27.6747 66.5455ZM26.0447 66.5455C26.0447 65.6577 25.9009 64.9102 25.6133 64.3029C25.3292 63.6921 24.9386 63.2305 24.4414 62.918C23.9478 62.6019 23.3885 62.4439 22.7635 62.4439C22.1349 62.4439 21.5739 62.6019 21.0803 62.918C20.5866 63.2305 20.196 63.6921 19.9084 64.3029C19.6243 64.9102 19.4822 65.6577 19.4822 66.5455C19.4822 67.4332 19.6243 68.1825 19.9084 68.7933C20.196 69.4006 20.5866 69.8622 21.0803 70.1783C21.5739 70.4908 22.1349 70.647 22.7635 70.647C23.3885 70.647 23.9478 70.4908 24.4414 70.1783C24.9386 69.8622 25.3292 69.4006 25.6133 68.7933C25.9009 68.1825 26.0447 67.4332 26.0447 66.5455ZM33.4182 63.8182V65.0966H28.9491V63.8182H33.4182ZM30.1476 61.858H31.7403V69.5977C31.7403 69.9066 31.7865 70.1392 31.8788 70.2955C31.9711 70.4482 32.0901 70.5529 32.2357 70.6097C32.3849 70.663 32.5464 70.6896 32.7204 70.6896C32.8483 70.6896 32.9601 70.6808 33.056 70.663C33.1519 70.6452 33.2265 70.631 33.2797 70.6204L33.5674 71.9361C33.4751 71.9716 33.3437 72.0071 33.1732 72.0426C33.0028 72.0817 32.7897 72.103 32.534 72.1065C32.115 72.1136 31.7243 72.0391 31.3621 71.8828C30.9999 71.7266 30.7069 71.4851 30.4832 71.1584C30.2595 70.8317 30.1476 70.4215 30.1476 69.9279V61.858ZM36.9485 67.142V72H35.3558V61.0909H36.9272V65.1499H37.0284C37.2202 64.7095 37.5131 64.3597 37.9073 64.1005C38.3015 63.8413 38.8164 63.7116 39.4521 63.7116C40.0131 63.7116 40.5032 63.8271 40.9222 64.0579C41.3448 64.2887 41.6715 64.6332 41.9023 65.0913C42.1367 65.5458 42.2539 66.114 42.2539 66.7958V72H40.6612V66.9876C40.6612 66.3874 40.5067 65.9222 40.1978 65.592C39.8888 65.2582 39.4592 65.0913 38.9087 65.0913C38.5323 65.0913 38.195 65.1712 37.8967 65.331C37.6019 65.4908 37.3693 65.7251 37.1989 66.0341C37.032 66.3395 36.9485 66.7088 36.9485 67.142ZM47.9055 72.1651C47.0994 72.1651 46.4052 71.9929 45.8228 71.6484C45.244 71.3004 44.7965 70.8121 44.4805 70.1836C44.168 69.5515 44.0117 68.8111 44.0117 67.9624C44.0117 67.1243 44.168 66.3857 44.4805 65.7464C44.7965 65.1072 45.2369 64.6083 45.8015 64.2496C46.3697 63.891 47.0337 63.7116 47.7937 63.7116C48.2553 63.7116 48.7028 63.788 49.136 63.9407C49.5692 64.0934 49.9581 64.3331 50.3026 64.6598C50.647 64.9865 50.9187 65.4109 51.1175 65.9329C51.3164 66.4513 51.4158 67.0817 51.4158 67.8239V68.3885H44.9119V67.1953H49.8551C49.8551 66.7763 49.7699 66.4052 49.5994 66.082C49.429 65.7553 49.1893 65.4979 48.8803 65.3097C48.5749 65.1214 48.2163 65.0273 47.8043 65.0273C47.3569 65.0273 46.9663 65.1374 46.6325 65.3576C46.3022 65.5742 46.0465 65.8583 45.8654 66.2099C45.6879 66.5579 45.5991 66.9361 45.5991 67.3445V68.2766C45.5991 68.8235 45.695 69.2887 45.8867 69.6722C46.082 70.0558 46.3537 70.3487 46.7017 70.5511C47.0497 70.75 47.4563 70.8494 47.9215 70.8494C48.2234 70.8494 48.4986 70.8068 48.7472 70.7216C48.9957 70.6328 49.2106 70.5014 49.3917 70.3274C49.5728 70.1534 49.7113 69.9386 49.8072 69.6829L51.3146 69.9545C51.1939 70.3984 50.9773 70.7873 50.6648 71.1211C50.3558 71.4513 49.967 71.7088 49.4982 71.8935C49.033 72.0746 48.5021 72.1651 47.9055 72.1651ZM53.183 72V63.8182H54.7224V65.1179H54.8076C54.9568 64.6776 55.2195 64.3313 55.596 64.0792C55.9759 63.8235 56.4056 63.6957 56.885 63.6957C56.9845 63.6957 57.1017 63.6992 57.2366 63.7063C57.3751 63.7134 57.4834 63.7223 57.5615 63.733V65.2564C57.4976 65.2386 57.384 65.2191 57.2206 65.1978C57.0573 65.1729 56.8939 65.1605 56.7306 65.1605C56.3541 65.1605 56.0186 65.2404 55.7238 65.4002C55.4326 65.5565 55.2018 65.7749 55.0313 66.0554C54.8609 66.3324 54.7757 66.6484 54.7757 67.0036V72H53.183Z" fill="white"/>
</svg>
