<svg width="512" height="512" viewBox="0 0 512 512" fill="none" xmlns="http://www.w3.org/2000/svg">
<path fill-rule="evenodd" clip-rule="evenodd" d="M168.977 162.64C186.653 162.62 203.599 155.59 216.098 143.091C228.597 130.592 235.627 113.646 235.647 95.97V72.67C235.647 54.988 228.623 38.0302 216.12 25.5272C203.617 13.0241 186.659 6 168.977 6C151.295 6 134.337 13.0241 121.834 25.5272C109.331 38.0302 102.307 54.988 102.307 72.67V95.97C102.327 113.646 109.358 130.592 121.856 143.091C134.355 155.589 151.301 162.62 168.977 162.64ZM116.31 72.67C116.31 58.7011 121.859 45.3042 131.737 35.4267C141.614 25.5491 155.011 20 168.98 20C182.949 20 196.346 25.5491 206.223 35.4267C216.101 45.3042 221.65 58.7011 221.65 72.67V95.97C221.65 109.939 216.101 123.336 206.223 133.213C196.346 143.091 182.949 148.64 168.98 148.64C155.011 148.64 141.614 143.091 131.737 133.213C121.859 123.336 116.31 109.939 116.31 95.97V72.67ZM484.525 356.463L460.725 350.485C459.537 340.046 456.928 329.818 452.97 320.085L471.17 303.917C472.477 302.756 473.302 301.149 473.484 299.41C473.665 297.672 473.19 295.929 472.151 294.523L448.692 262.777C447.659 261.379 446.142 260.415 444.437 260.073C442.732 259.732 440.961 260.037 439.469 260.93L418.569 273.43C410.402 266.739 401.345 261.217 391.657 257.021L393 232.633C393.096 230.894 392.54 229.183 391.442 227.832C390.343 226.481 388.781 225.588 387.059 225.327L349.253 219.602C347.535 219.342 345.781 219.73 344.333 220.691C342.885 221.652 341.846 223.117 341.419 224.802L335.419 248.496C328.83 249.212 322.316 250.498 315.949 252.338V248.498C315.894 230.085 308.539 212.446 295.496 199.449C282.453 186.453 264.788 179.16 246.375 179.17H229.21C227.837 179.17 226.495 179.574 225.35 180.33C224.205 181.087 223.308 182.164 222.77 183.427L186.357 268.919L183.465 232.49H183.556C185.015 232.49 186.438 232.034 187.625 231.186C188.812 230.337 189.705 229.139 190.178 227.759L202.11 192.919C202.47 191.867 202.575 190.744 202.415 189.643C202.255 188.543 201.835 187.496 201.19 186.59C200.544 185.684 199.693 184.945 198.705 184.434C197.717 183.923 196.622 183.654 195.51 183.651L145.779 183.475C144.665 183.478 143.567 183.743 142.575 184.25C141.583 184.756 140.724 185.49 140.069 186.391C139.418 187.297 138.994 188.345 138.83 189.448C138.667 190.551 138.769 191.677 139.129 192.733L151.064 227.751C151.535 229.134 152.428 230.335 153.616 231.185C154.804 232.036 156.229 232.493 157.69 232.493H159.21L156.326 268.817L119.182 183.383C118.638 182.132 117.741 181.068 116.6 180.32C115.46 179.572 114.126 179.174 112.762 179.174H91.578C73.1638 179.162 55.4968 186.455 42.4529 199.453C29.409 212.451 22.0535 230.092 22 248.506V399.415C22 401.271 22.7375 403.052 24.0503 404.365C25.363 405.677 27.1435 406.415 29 406.415H145.4L144.959 411.97C144.86 413.221 145.099 414.477 145.651 415.604C146.204 416.732 147.049 417.69 148.099 418.378L167.74 431.259C168.892 432.014 170.242 432.413 171.619 432.405C172.997 432.397 174.342 431.983 175.485 431.214L194.638 418.333C195.668 417.64 196.496 416.686 197.036 415.567C197.576 414.449 197.808 413.208 197.71 411.97L197.269 406.415H239.191L222.38 421.351C221.073 422.512 220.248 424.119 220.066 425.858C219.885 427.596 220.36 429.339 221.399 430.745L244.858 462.491C245.891 463.89 247.408 464.853 249.113 465.195C250.819 465.536 252.59 465.231 254.082 464.338L275.023 451.812C283.191 458.484 292.229 464.012 301.888 468.246L300.545 492.637C300.449 494.375 301.005 496.087 302.103 497.438C303.202 498.789 304.764 499.682 306.486 499.943L344.292 505.668C346.011 505.93 347.765 505.543 349.214 504.582C350.662 503.62 351.701 502.154 352.126 500.468L358.126 476.768C368.619 475.587 378.902 472.983 388.692 469.028L404.947 487.182C406.107 488.477 407.707 489.294 409.436 489.475C411.165 489.655 412.899 489.186 414.301 488.158L446.172 464.791C447.581 463.758 448.553 462.235 448.897 460.521C449.24 458.808 448.93 457.028 448.028 455.531L435.505 434.76C442.208 426.639 447.744 417.622 451.955 407.97L476.476 409.31C478.213 409.404 479.922 408.849 481.271 407.752C482.621 406.655 483.514 405.095 483.776 403.376L489.739 364.309C490.002 362.587 489.614 360.829 488.649 359.378C487.685 357.927 486.215 356.887 484.525 356.463ZM155.552 197.511L185.705 197.617L178.554 218.493H162.703L155.552 197.511ZM36 392.414V248.506C36.0485 233.803 41.9272 219.719 52.3466 209.345C62.7659 198.971 76.8749 193.154 91.578 193.17H108.178L153.978 298.506L146.522 392.406L36 392.414ZM171.53 417.001L159.245 408.943L171.337 256.643L183.431 408.996L171.53 417.001ZM188.746 299.039L233.835 193.17H246.376C261.079 193.154 275.187 198.971 285.606 209.344C296.026 219.717 301.905 233.799 301.954 248.502V253.002L288.602 238.09C287.442 236.795 285.842 235.977 284.113 235.797C282.384 235.617 280.65 236.086 279.248 237.114L247.377 260.481C245.968 261.514 244.996 263.037 244.653 264.75C244.309 266.464 244.619 268.243 245.521 269.74L258.073 290.559C251.389 298.68 245.845 307.677 241.594 317.298L217.071 315.958C215.336 315.868 213.628 316.425 212.28 317.521C210.932 318.617 210.038 320.175 209.771 321.892L203.81 360.962C203.547 362.684 203.936 364.442 204.9 365.893C205.865 367.344 207.335 368.383 209.025 368.807L232.825 374.784C233.484 380.741 234.614 386.636 236.204 392.414H196.157L188.746 299.039ZM470.896 394.983L447.747 393.718C446.266 393.634 444.797 394.024 443.552 394.832C442.308 395.639 441.353 396.822 440.826 398.209C436.443 409.666 429.96 420.204 421.71 429.282C420.691 430.396 420.059 431.811 419.909 433.314C419.76 434.816 420.1 436.327 420.88 437.621L432.732 457.278L411.14 473.109L395.784 455.958C394.794 454.853 393.479 454.091 392.028 453.781C390.577 453.472 389.065 453.632 387.711 454.238C376.487 459.35 364.433 462.396 352.128 463.231C350.647 463.323 349.234 463.882 348.091 464.83C346.949 465.777 346.138 467.062 345.774 468.501L340.11 490.87L314.872 487.048L316.14 464.026C316.222 462.542 315.829 461.07 315.019 459.825C314.208 458.579 313.023 457.623 311.633 457.096C300.138 452.659 289.539 446.183 280.346 437.979C279.232 436.999 277.836 436.397 276.359 436.262C274.881 436.127 273.399 436.464 272.126 437.226L252.343 449.06L236.461 427.57L253.645 412.305C254.774 411.302 255.548 409.961 255.852 408.482C256.156 407.003 255.974 405.466 255.333 404.099C250.167 392.986 247.122 381.007 246.354 368.776C246.261 367.294 245.7 365.879 244.751 364.737C243.801 363.595 242.513 362.785 241.073 362.423L218.61 356.782L222.653 330.289L245.801 331.554C247.282 331.638 248.751 331.249 249.996 330.441C251.24 329.634 252.195 328.451 252.721 327.064C257.183 315.606 263.684 305.051 271.91 295.912C272.901 294.796 273.509 293.393 273.645 291.907C273.782 290.421 273.44 288.93 272.67 287.652L260.81 267.995L282.41 252.163L297.766 269.314C298.768 270.433 300.103 271.2 301.574 271.502C303.044 271.804 304.574 271.625 305.935 270.991C317.109 265.838 329.141 262.804 341.422 262.042C342.903 261.95 344.316 261.39 345.459 260.443C346.601 259.496 347.412 258.21 347.776 256.772L353.438 234.399L378.676 238.22L377.41 261.243C377.328 262.726 377.72 264.196 378.529 265.441C379.338 266.686 380.522 267.642 381.91 268.17C393.403 272.53 403.986 278.989 413.119 287.217C414.231 288.226 415.638 288.851 417.133 289C418.628 289.148 420.13 288.811 421.419 288.04L441.202 276.206L457.086 297.7L439.904 312.97C438.789 313.961 438.019 315.282 437.707 316.741C437.396 318.2 437.558 319.72 438.171 321.08C443.298 332.242 446.355 344.243 447.194 356.498C447.287 357.98 447.848 359.395 448.797 360.537C449.747 361.679 451.035 362.489 452.475 362.851L474.939 368.493L470.896 394.983ZM261.435 349.704C268.635 302.53 313.009 269.983 360.357 277.154H360.353C371.611 278.836 382.426 282.722 392.181 288.588C401.936 294.454 410.438 302.186 417.201 311.342C423.965 320.497 428.857 330.896 431.597 341.944C434.338 352.992 434.873 364.472 433.173 375.727C426.643 418.513 389.528 449.267 347.355 449.267C342.97 449.266 338.591 448.935 334.255 448.277C322.997 446.595 312.182 442.709 302.427 436.843C292.672 430.977 284.17 423.244 277.407 414.089C270.643 404.934 265.751 394.535 263.011 383.487C260.27 372.439 259.735 360.959 261.435 349.704ZM400.974 411.675C410.715 401.077 417.105 387.835 419.338 373.615C420.796 364.219 420.374 354.626 418.097 345.394C415.82 336.162 411.733 327.474 406.073 319.833C397.53 308.247 385.751 299.448 372.218 294.542C358.685 289.636 344.004 288.842 330.021 292.261C316.038 295.68 303.379 303.159 293.637 313.756C283.896 324.353 277.506 337.596 275.273 351.816C273.815 361.212 274.237 370.805 276.514 380.037C278.791 389.269 282.878 397.957 288.538 405.598C297.081 417.183 308.86 425.983 322.393 430.889C335.926 435.795 350.607 436.589 364.59 433.17C378.573 429.751 391.232 422.272 400.974 411.675Z" fill="url(#paint0_linear_181_6)"/>
<defs>
<linearGradient id="paint0_linear_181_6" x1="39" y1="445.5" x2="418.227" y2="373.747" gradientUnits="userSpaceOnUse">
<stop stop-color="#00DBDE"/>
<stop offset="1" stop-color="#FC00FF"/>
</linearGradient>
</defs>
</svg>
