<?xml version="1.0" ?><svg style="enable-background:new 0 0 24 24;" version="1.1" viewBox="0 0 24 24" xml:space="preserve" xmlns="http://www.w3.org/2000/svg" xmlns:xlink="http://www.w3.org/1999/xlink"><g id="Guides"/><g id="_x32_0"/><g id="_x31_9"/><g id="_x31_8"/><g id="_x31_7"/><g id="_x31_6"/><g id="_x31_5"/><g id="_x31_4"/><g id="_x31_3"/><g id="_x31_2"/><g id="_x31_1"/><g id="_x31_0"/><g id="_x30_9"/><g id="_x30_8"/><g id="_x30_7"/><g id="_x30_6"/><g id="_x30_5"/><g id="_x30_4"/><g id="_x30_3"/><g id="_x30_2"/><g id="_x30_1"><g><path fill="#8928EB" d="M12.5,10c2.2055664,0,4-1.7944336,4-4s-1.7944336-4-4-4s-4,1.7944336-4,4S10.2944336,10,12.5,10z M12.5,4    c1.1030273,0,2,0.8969727,2,2s-0.8969727,2-2,2s-2-0.8969727-2-2S11.3969727,4,12.5,4z"/><path fill="#8928EB" d="M18.5,7c-0.1757813,0-0.3491211-0.0463867-0.5004883-0.1337891    c-0.4794922-0.2763672-1.0908203-0.1123047-1.3662109,0.3662109c-0.2758789,0.4785156-0.1118164,1.0898438,0.3662109,1.3662109    C17.4545898,8.8613281,17.9736328,9,18.5,9c1.6542969,0,3-1.3457031,3-3s-1.3457031-3-3-3    c-0.5263672,0-1.0454102,0.1386719-1.5004883,0.4013672c-0.4780273,0.2763672-0.6420898,0.8876953-0.3662109,1.3662109    c0.2758789,0.4780273,0.8867188,0.6420898,1.3662109,0.3662109C18.1508789,5.0463867,18.3242188,5,18.5,5    c0.5512695,0,1,0.4487305,1,1S19.0512695,7,18.5,7z"/><path fill="#8928EB" d="M8.3666992,7.2324219C8.090332,6.7539063,7.4799805,6.5898438,7.0004883,6.8662109C6.8491211,6.9536133,6.6757813,7,6.5,7    c-0.5512695,0-1-0.4487305-1-1s0.4487305-1,1-1c0.1757813,0,0.3491211,0.0463867,0.5004883,0.1337891    C7.4799805,5.409668,8.090332,5.2456055,8.3666992,4.7675781c0.2758789-0.4785156,0.1118164-1.0898438-0.3662109-1.3662109    C7.5454102,3.1386719,7.0263672,3,6.5,3c-1.6542969,0-3,1.3457031-3,3s1.3457031,3,3,3    c0.5263672,0,1.0454102-0.1386719,1.5004883-0.4013672C8.4785156,8.3222656,8.6425781,7.7109375,8.3666992,7.2324219z"/><path fill="#8928EB" d="M18.5,11c-0.5522461,0-1,0.4477539-1,1s0.4477539,1,1,1c1.1030273,0,2,0.8969727,2,2v4h-1c-0.5522461,0-1,0.4477539-1,1    s0.4477539,1,1,1h2c0.5522461,0,1-0.4477539,1-1v-5C22.5,12.7944336,20.7055664,11,18.5,11z"/><path fill="#8928EB" d="M5.5,13c0.5522461,0,1-0.4477539,1-1s-0.4477539-1-1-1c-2.2055664,0-4,1.7944336-4,4v5c0,0.5522461,0.4477539,1,1,1h3    c0.5522461,0,1-0.4477539,1-1s-0.4477539-1-1-1h-2v-4C3.5,13.8969727,4.3969727,13,5.5,13z"/><path fill="#8928EB" d="M14.5,11h-4c-1.6542969,0-3,1.3457031-3,3v7c0,0.5522461,0.4477539,1,1,1h8c0.5522461,0,1-0.4477539,1-1v-7    C17.5,12.3457031,16.1542969,11,14.5,11z M15.5,20h-6v-6c0-0.5512695,0.4487305-1,1-1h4c0.5512695,0,1,0.4487305,1,1V20z"/></g></g></svg>
