<svg width="608" height="93" viewBox="0 0 608 93" fill="none" xmlns="http://www.w3.org/2000/svg">
<path d="M14.3125 54.625C12.5625 54.625 10.8958 54.2917 9.3125 53.625C7.77083 52.9167 6.41667 52 5.25 50.875C4.08333 49.7083 3.16667 48.3542 2.5 46.8125C1.83333 45.2292 1.5 43.5625 1.5 41.8125V16.1875C1.5 14.4375 1.83333 12.7917 2.5 11.25C3.16667 9.66667 4.08333 8.3125 5.25 7.1875C6.41667 6.02083 7.77083 5.10417 9.3125 4.4375C10.8958 3.72917 12.5625 3.375 14.3125 3.375H57.8125C59.5625 3.375 61.2083 3.72917 62.75 4.4375C64.3333 5.10417 65.7083 6.02083 66.875 7.1875C68.0417 8.3125 68.9583 9.66667 69.625 11.25C70.2917 12.7917 70.625 14.4375 70.625 16.1875V27.75H57.8125V16.1875H14.3125V41.8125H57.8125C59.5625 41.8125 61.2083 42.1458 62.75 42.8125C64.3333 43.4792 65.7083 44.3958 66.875 45.5625C68.0417 46.7292 68.9583 48.1042 69.625 49.6875C70.2917 51.2292 70.625 52.875 70.625 54.625V80.1875C70.625 81.9375 70.2917 83.6042 69.625 85.1875C68.9583 86.7292 68.0417 88.0833 66.875 89.25C65.7083 90.4167 64.3333 91.3333 62.75 92C61.2083 92.6667 59.5625 93 57.8125 93H13.0625C11.3125 93 9.64583 92.6667 8.0625 92C6.52083 91.3333 5.16667 90.4167 4 89.25C2.83333 88.0833 1.91667 86.7292 1.25 85.1875C0.583333 83.6042 0.25 81.9375 0.25 80.1875V68.6875H13.0625V80.1875H57.8125V54.625H14.3125ZM136.5 93L104.75 64.5625V93H92.5V0.8125H104.75V52.6875L133.938 26.4375H151.25L115.5 58.5625L153.812 93H136.5ZM175.688 26.4375V93H163.375V26.4375H175.688ZM162.75 0.8125H176.312V13.625H162.75V0.8125ZM209.125 0.8125V93H196.875V0.8125H209.125ZM241.875 0.8125V93H229.625V0.8125H241.875ZM302.562 80.6875V65.25H273.375C271.667 65.25 270.062 64.9375 268.562 64.3125C267.062 63.6458 265.75 62.7708 264.625 61.6875C263.542 60.5625 262.667 59.25 262 57.75C261.375 56.25 261.062 54.6458 261.062 52.9375V38.75C261.062 37.0417 261.375 35.4375 262 33.9375C262.667 32.4375 263.542 31.1458 264.625 30.0625C265.75 28.9375 267.062 28.0625 268.562 27.4375C270.062 26.7708 271.667 26.4375 273.375 26.4375H312.312V38.75H273.375V52.9375H302.562C304.271 52.9375 305.854 53.2708 307.312 53.9375C308.812 54.5625 310.125 55.4375 311.25 56.5625C312.375 57.6458 313.25 58.9375 313.875 60.4375C314.542 61.9375 314.875 63.5417 314.875 65.25V80.6875C314.875 82.3958 314.542 84 313.875 85.5C313.25 87 312.375 88.3125 311.25 89.4375C310.125 90.5208 308.812 91.3958 307.312 92.0625C305.854 92.6875 304.271 93 302.562 93H261.062V80.6875H302.562ZM327.688 3.375H399.375V16.1875H369.938V93H357.125V16.1875H327.688V3.375ZM418 38.75V93H405.75V26.4375H418V38.1875C418.083 36.5625 418.458 35.0417 419.125 33.625C419.792 32.1667 420.667 30.9167 421.75 29.875C422.875 28.7917 424.167 27.9583 425.625 27.375C427.083 26.75 428.646 26.4375 430.312 26.4375H443.375C445.083 26.4375 446.667 26.7708 448.125 27.4375C449.625 28.0625 450.938 28.9375 452.062 30.0625C453.188 31.1458 454.062 32.4375 454.688 33.9375C455.354 35.4375 455.688 37.0417 455.688 38.75V50H443.375V38.75H418ZM528.562 80.6875C528.562 82.3958 528.229 84 527.562 85.5C526.938 87 526.062 88.3125 524.938 89.4375C523.854 90.5208 522.562 91.3958 521.062 92.0625C519.604 92.6875 518.021 93 516.312 93H483.25C481.583 93 480 92.6875 478.5 92.0625C477 91.3958 475.688 90.5208 474.562 89.4375C473.479 88.3125 472.604 87 471.938 85.5C471.312 84 471 82.3958 471 80.6875V38.75C471 37.0417 471.312 35.4375 471.938 33.9375C472.604 32.4375 473.479 31.1458 474.562 30.0625C475.688 28.9375 477 28.0625 478.5 27.4375C480 26.7708 481.583 26.4375 483.25 26.4375H516.312C518.021 26.4375 519.604 26.7708 521.062 27.4375C522.562 28.0625 523.854 28.9375 524.938 30.0625C526.062 31.1458 526.938 32.4375 527.562 33.9375C528.229 35.4375 528.562 37.0417 528.562 38.75V80.6875ZM483.25 38.75V80.6875H516.312V38.75H483.25ZM608 93H595.688V38.75H561.375V93H549.125V26.4375H561.375V38.1875C561.458 36.5625 561.833 35.0417 562.5 33.625C563.167 32.1667 564.042 30.9167 565.125 29.875C566.25 28.7917 567.542 27.9583 569 27.375C570.458 26.75 572.021 26.4375 573.688 26.4375H595.688C597.396 26.4375 599 26.7708 600.5 27.4375C602 28.0625 603.292 28.9375 604.375 30.0625C605.5 31.1458 606.375 32.4375 607 33.9375C607.667 35.4375 608 37.0417 608 38.75V93Z" fill="white"/>
</svg>
