<svg width="658" height="90" viewBox="0 0 658 90" fill="none" xmlns="http://www.w3.org/2000/svg">
<path d="M14.3125 51.625C12.5625 51.625 10.8958 51.2917 9.3125 50.625C7.77083 49.9167 6.41667 49 5.25 47.875C4.08333 46.7083 3.16667 45.3542 2.5 43.8125C1.83333 42.2292 1.5 40.5625 1.5 38.8125V13.1875C1.5 11.4375 1.83333 9.79167 2.5 8.25C3.16667 6.66667 4.08333 5.3125 5.25 4.1875C6.41667 3.02083 7.77083 2.10417 9.3125 1.4375C10.8958 0.729167 12.5625 0.375 14.3125 0.375H57.8125C59.5625 0.375 61.2083 0.729167 62.75 1.4375C64.3333 2.10417 65.7083 3.02083 66.875 4.1875C68.0417 5.3125 68.9583 6.66667 69.625 8.25C70.2917 9.79167 70.625 11.4375 70.625 13.1875V24.75H57.8125V13.1875H14.3125V38.8125H57.8125C59.5625 38.8125 61.2083 39.1458 62.75 39.8125C64.3333 40.4792 65.7083 41.3958 66.875 42.5625C68.0417 43.7292 68.9583 45.1042 69.625 46.6875C70.2917 48.2292 70.625 49.875 70.625 51.625V77.1875C70.625 78.9375 70.2917 80.6042 69.625 82.1875C68.9583 83.7292 68.0417 85.0833 66.875 86.25C65.7083 87.4167 64.3333 88.3333 62.75 89C61.2083 89.6667 59.5625 90 57.8125 90H13.0625C11.3125 90 9.64583 89.6667 8.0625 89C6.52083 88.3333 5.16667 87.4167 4 86.25C2.83333 85.0833 1.91667 83.7292 1.25 82.1875C0.583333 80.6042 0.25 78.9375 0.25 77.1875V65.6875H13.0625V77.1875H57.8125V51.625H14.3125ZM106.562 0.375V39.0625L149.312 0.375H167.375L118.875 44.3125L169.312 90H151.25L106.562 49.6875V90H93.75V0.375H106.562ZM193.812 0.375V90H181V0.375H193.812ZM229.688 0.375V77.1875H275.75V90H216.875V0.375H229.688ZM303.938 0.375V77.1875H350V90H291.125V0.375H303.938ZM378.188 0.375V90H365.375V0.375H378.188ZM440.938 0.375L475.5 90H462.688L454.75 69.375H414.312L406.375 90H393.562L428.125 0.375H440.938ZM419.188 56.5625H449.812L434.562 17.0625L419.188 56.5625ZM503.688 90H490.875V0.375H503.688L557.562 69.875V0.375H570.375V90H557.562L503.688 20.5V90ZM585.688 0.375H657.375V13.1875H627.938V90H615.125V13.1875H585.688V0.375Z" fill="white"/>
</svg>
