<svg width="612" height="90" viewBox="0 0 612 90" fill="none" xmlns="http://www.w3.org/2000/svg">
<path d="M14.3125 51.625C12.5625 51.625 10.8958 51.2917 9.3125 50.625C7.77083 49.9167 6.41667 49 5.25 47.875C4.08333 46.7083 3.16667 45.3542 2.5 43.8125C1.83333 42.2292 1.5 40.5625 1.5 38.8125V13.1875C1.5 11.4375 1.83333 9.79167 2.5 8.25C3.16667 6.66667 4.08333 5.3125 5.25 4.1875C6.41667 3.02083 7.77083 2.10417 9.3125 1.4375C10.8958 0.729167 12.5625 0.375 14.3125 0.375H57.8125C59.5625 0.375 61.2083 0.729167 62.75 1.4375C64.3333 2.10417 65.7083 3.02083 66.875 4.1875C68.0417 5.3125 68.9583 6.66667 69.625 8.25C70.2917 9.79167 70.625 11.4375 70.625 13.1875V24.75H57.8125V13.1875H14.3125V38.8125H57.8125C59.5625 38.8125 61.2083 39.1458 62.75 39.8125C64.3333 40.4792 65.7083 41.3958 66.875 42.5625C68.0417 43.7292 68.9583 45.1042 69.625 46.6875C70.2917 48.2292 70.625 49.875 70.625 51.625V77.1875C70.625 78.9375 70.2917 80.6042 69.625 82.1875C68.9583 83.7292 68.0417 85.0833 66.875 86.25C65.7083 87.4167 64.3333 88.3333 62.75 89C61.2083 89.6667 59.5625 90 57.8125 90H13.0625C11.3125 90 9.64583 89.6667 8.0625 89C6.52083 88.3333 5.16667 87.4167 4 86.25C2.83333 85.0833 1.91667 83.7292 1.25 82.1875C0.583333 80.6042 0.25 78.9375 0.25 77.1875V65.6875H13.0625V77.1875H57.8125V51.625H14.3125ZM106.562 0.375V39.0625L149.312 0.375H167.375L118.875 44.3125L169.312 90H151.25L106.562 49.6875V90H93.75V0.375H106.562ZM193.812 0.375V90H181V0.375H193.812ZM229.688 0.375V77.1875H275.75V90H216.875V0.375H229.688ZM303.938 0.375V77.1875H350V90H291.125V0.375H303.938ZM365.375 0.375H430.688V13.1875H378.188V38.8125H423V51.625H378.188V77.1875H430.688V90H365.375V0.375ZM520.688 32.375C520.688 44.875 515.354 52 504.688 53.75L521.562 90H507.375L490.75 54.1875H462.688V90H449.875V0.375H498.938C513.438 0.375 520.688 7.64583 520.688 22.1875V32.375ZM462.688 41.375H498.25C501.667 41.375 504.125 40.625 505.625 39.125C507.125 37.625 507.875 35.1667 507.875 31.75V22.8125C507.875 19.3958 507.125 16.9375 505.625 15.4375C504.125 13.9375 501.667 13.1875 498.25 13.1875H462.688V41.375ZM554.938 51.625C553.188 51.625 551.521 51.2917 549.938 50.625C548.396 49.9167 547.042 49 545.875 47.875C544.708 46.7083 543.792 45.3542 543.125 43.8125C542.458 42.2292 542.125 40.5625 542.125 38.8125V13.1875C542.125 11.4375 542.458 9.79167 543.125 8.25C543.792 6.66667 544.708 5.3125 545.875 4.1875C547.042 3.02083 548.396 2.10417 549.938 1.4375C551.521 0.729167 553.188 0.375 554.938 0.375H598.438C600.188 0.375 601.833 0.729167 603.375 1.4375C604.958 2.10417 606.333 3.02083 607.5 4.1875C608.667 5.3125 609.583 6.66667 610.25 8.25C610.917 9.79167 611.25 11.4375 611.25 13.1875V24.75H598.438V13.1875H554.938V38.8125H598.438C600.188 38.8125 601.833 39.1458 603.375 39.8125C604.958 40.4792 606.333 41.3958 607.5 42.5625C608.667 43.7292 609.583 45.1042 610.25 46.6875C610.917 48.2292 611.25 49.875 611.25 51.625V77.1875C611.25 78.9375 610.917 80.6042 610.25 82.1875C609.583 83.7292 608.667 85.0833 607.5 86.25C606.333 87.4167 604.958 88.3333 603.375 89C601.833 89.6667 600.188 90 598.438 90H553.688C551.938 90 550.271 89.6667 548.688 89C547.146 88.3333 545.792 87.4167 544.625 86.25C543.458 85.0833 542.542 83.7292 541.875 82.1875C541.208 80.6042 540.875 78.9375 540.875 77.1875V65.6875H553.688V77.1875H598.438V51.625H554.938Z" fill="white"/>
</svg>
