<svg width="537" height="93" viewBox="0 0 537 93" fill="none" xmlns="http://www.w3.org/2000/svg">
<path d="M14.3125 54.625C12.5625 54.625 10.8958 54.2917 9.3125 53.625C7.77083 52.9167 6.41667 52 5.25 50.875C4.08333 49.7083 3.16667 48.3542 2.5 46.8125C1.83333 45.2292 1.5 43.5625 1.5 41.8125V16.1875C1.5 14.4375 1.83333 12.7917 2.5 11.25C3.16667 9.66667 4.08333 8.3125 5.25 7.1875C6.41667 6.02083 7.77083 5.10417 9.3125 4.4375C10.8958 3.72917 12.5625 3.375 14.3125 3.375H57.8125C59.5625 3.375 61.2083 3.72917 62.75 4.4375C64.3333 5.10417 65.7083 6.02083 66.875 7.1875C68.0417 8.3125 68.9583 9.66667 69.625 11.25C70.2917 12.7917 70.625 14.4375 70.625 16.1875V27.75H57.8125V16.1875H14.3125V41.8125H57.8125C59.5625 41.8125 61.2083 42.1458 62.75 42.8125C64.3333 43.4792 65.7083 44.3958 66.875 45.5625C68.0417 46.7292 68.9583 48.1042 69.625 49.6875C70.2917 51.2292 70.625 52.875 70.625 54.625V80.1875C70.625 81.9375 70.2917 83.6042 69.625 85.1875C68.9583 86.7292 68.0417 88.0833 66.875 89.25C65.7083 90.4167 64.3333 91.3333 62.75 92C61.2083 92.6667 59.5625 93 57.8125 93H13.0625C11.3125 93 9.64583 92.6667 8.0625 92C6.52083 91.3333 5.16667 90.4167 4 89.25C2.83333 88.0833 1.91667 86.7292 1.25 85.1875C0.583333 83.6042 0.25 81.9375 0.25 80.1875V68.6875H13.0625V80.1875H57.8125V54.625H14.3125ZM136.5 93L104.75 64.5625V93H92.5V0.8125H104.75V52.6875L133.938 26.4375H151.25L115.5 58.5625L153.812 93H136.5ZM175.688 26.4375V93H163.375V26.4375H175.688ZM162.75 0.8125H176.312V13.625H162.75V0.8125ZM209.125 0.8125V93H196.875V0.8125H209.125ZM241.875 0.8125V93H229.625V0.8125H241.875ZM255.938 3.375H327.625V16.1875H298.188V93H285.375V16.1875H255.938V3.375ZM346.25 38.75V93H334V26.4375H346.25V38.1875C346.333 36.5625 346.708 35.0417 347.375 33.625C348.042 32.1667 348.917 30.9167 350 29.875C351.125 28.7917 352.417 27.9583 353.875 27.375C355.333 26.75 356.896 26.4375 358.562 26.4375H371.625C373.333 26.4375 374.917 26.7708 376.375 27.4375C377.875 28.0625 379.188 28.9375 380.312 30.0625C381.438 31.1458 382.312 32.4375 382.938 33.9375C383.604 35.4375 383.938 37.0417 383.938 38.75V50H371.625V38.75H346.25ZM456.812 80.6875C456.812 82.3958 456.479 84 455.812 85.5C455.188 87 454.312 88.3125 453.188 89.4375C452.104 90.5208 450.812 91.3958 449.312 92.0625C447.854 92.6875 446.271 93 444.562 93H411.5C409.833 93 408.25 92.6875 406.75 92.0625C405.25 91.3958 403.938 90.5208 402.812 89.4375C401.729 88.3125 400.854 87 400.188 85.5C399.562 84 399.25 82.3958 399.25 80.6875V38.75C399.25 37.0417 399.562 35.4375 400.188 33.9375C400.854 32.4375 401.729 31.1458 402.812 30.0625C403.938 28.9375 405.25 28.0625 406.75 27.4375C408.25 26.7708 409.833 26.4375 411.5 26.4375H444.562C446.271 26.4375 447.854 26.7708 449.312 27.4375C450.812 28.0625 452.104 28.9375 453.188 30.0625C454.312 31.1458 455.188 32.4375 455.812 33.9375C456.479 35.4375 456.812 37.0417 456.812 38.75V80.6875ZM411.5 38.75V80.6875H444.562V38.75H411.5ZM536.25 93H523.938V38.75H489.625V93H477.375V26.4375H489.625V38.1875C489.708 36.5625 490.083 35.0417 490.75 33.625C491.417 32.1667 492.292 30.9167 493.375 29.875C494.5 28.7917 495.792 27.9583 497.25 27.375C498.708 26.75 500.271 26.4375 501.938 26.4375H523.938C525.646 26.4375 527.25 26.7708 528.75 27.4375C530.25 28.0625 531.542 28.9375 532.625 30.0625C533.75 31.1458 534.625 32.4375 535.25 33.9375C535.917 35.4375 536.25 37.0417 536.25 38.75V93Z" fill="white"/>
</svg>
