<svg width="16" height="16" viewBox="0 0 16 16" fill="none" xmlns="http://www.w3.org/2000/svg">
<rect width="16" height="16" fill="black"/>
<path d="M4.99823 8.86193C4.74955 8.86193 4.51273 8.81729 4.28774 8.72803C4.06868 8.63319 3.87625 8.51047 3.71048 8.35983C3.5447 8.20363 3.41445 8.02232 3.31972 7.8159C3.22498 7.60391 3.17762 7.38075 3.17762 7.14645V3.71548C3.17762 3.48117 3.22498 3.26081 3.31972 3.0544C3.41445 2.8424 3.5447 2.66109 3.71048 2.51046C3.87625 2.35425 4.06868 2.23152 4.28774 2.14226C4.51273 2.04742 4.74955 2 4.99823 2H11.1794C11.4281 2 11.6619 2.04742 11.881 2.14226C12.106 2.23152 12.3013 2.35425 12.4671 2.51046C12.6329 2.66109 12.7631 2.8424 12.8579 3.0544C12.9526 3.26081 13 3.48117 13 3.71548V5.2636H11.1794V3.71548H4.99823V7.14645H11.1794C11.4281 7.14645 11.6619 7.19107 11.881 7.28033C12.106 7.36959 12.3013 7.49233 12.4671 7.64853C12.6329 7.80474 12.7631 7.98884 12.8579 8.20084C12.9526 8.40726 13 8.62761 13 8.86193V12.2845C13 12.5188 12.9526 12.742 12.8579 12.954C12.7631 13.1604 12.6329 13.3417 12.4671 13.4979C12.3013 13.6541 12.106 13.7768 11.881 13.8661C11.6619 13.9553 11.4281 14 11.1794 14H4.8206C4.57193 14 4.33511 13.9553 4.11012 13.8661C3.89106 13.7768 3.69864 13.6541 3.53286 13.4979C3.36708 13.3417 3.23683 13.1604 3.1421 12.954C3.04737 12.742 3 12.5188 3 12.2845V10.7448H4.8206V12.2845H11.1794V8.86193H4.99823Z" fill="white"/>
</svg>
