<svg width="260" height="260" viewBox="0 0 260 260" fill="none" xmlns="http://www.w3.org/2000/svg">
<g clip-path="url(#clip0_900_301)">
<path d="M130 260C201.797 260 260 201.797 260 130C260 58.2033 201.797 0 130 0C58.203 0 0 58.2033 0 130C0 201.797 58.203 260 130 260Z" fill="url(#paint0_linear_900_301)"/>
<path d="M65.0002 59.583H189.583C192.584 59.583 195 61.9988 195 64.9997V178.75C195 181.751 192.584 184.167 189.583 184.167H65.0002C61.9993 184.167 59.5835 181.751 59.5835 178.75V64.9997C59.5835 61.9988 61.9993 59.583 65.0002 59.583Z" fill="#F0F4F7"/>
<path d="M65.0002 59.583H189.583C192.584 59.583 195 61.9988 195 64.9997V86.6663H59.5835V64.9997C59.5835 61.9988 61.9993 59.583 65.0002 59.583Z" fill="#0C5286"/>
<path d="M184.167 73.1253C184.167 73.8436 183.881 74.5326 183.373 75.0405C182.866 75.5484 182.177 75.8337 181.458 75.8337C180.74 75.8337 180.051 75.5484 179.543 75.0405C179.035 74.5326 178.75 73.8436 178.75 73.1253C178.75 72.407 179.035 71.718 179.543 71.2101C180.051 70.7022 180.74 70.417 181.458 70.417C182.177 70.417 182.866 70.7022 183.373 71.2101C183.881 71.718 184.167 72.407 184.167 73.1253Z" fill="#EE7581"/>
<path d="M173.333 73.1253C173.333 73.8436 173.048 74.5326 172.54 75.0405C172.032 75.5484 171.343 75.8337 170.625 75.8337C169.907 75.8337 169.218 75.5484 168.71 75.0405C168.202 74.5326 167.917 73.8436 167.917 73.1253C167.917 72.407 168.202 71.718 168.71 71.2101C169.218 70.7022 169.907 70.417 170.625 70.417C171.343 70.417 172.032 70.7022 172.54 71.2101C173.048 71.718 173.333 72.407 173.333 73.1253ZM162.5 73.1253C162.5 73.8436 162.215 74.5326 161.707 75.0405C161.199 75.5484 160.51 75.8337 159.792 75.8337C159.074 75.8337 158.385 75.5484 157.877 75.0405C157.369 74.5326 157.083 73.8436 157.083 73.1253C157.083 72.407 157.369 71.718 157.877 71.2101C158.385 70.7022 159.074 70.417 159.792 70.417C160.51 70.417 161.199 70.7022 161.707 71.2101C162.215 71.718 162.5 72.407 162.5 73.1253Z" fill="#8FB6D7"/>
<path d="M211.25 170.132H204.642C203.984 167.215 202.84 164.43 201.256 161.893L205.904 157.24L197.551 148.888L192.888 153.546C190.354 151.957 187.57 150.808 184.654 150.145V143.542H172.846V150.155C169.927 150.811 167.14 151.953 164.602 153.536L159.949 148.888L151.591 157.24L156.255 161.904C154.666 164.438 153.516 167.221 152.853 170.137H146.25V181.951H152.858C153.516 184.868 154.66 187.654 156.244 190.19L151.591 194.848L159.949 203.201L164.607 198.537C167.141 200.126 169.924 201.276 172.84 201.938V208.547H184.66V201.928C187.576 201.272 190.362 200.129 192.898 198.548L197.551 203.201L205.904 194.843L201.245 190.185C202.834 187.651 203.984 184.867 204.647 181.951H211.25V170.132Z" fill="#F9B536"/>
<path d="M189.583 176.042C189.583 170.089 184.708 165.209 178.75 165.209C172.797 165.209 167.917 170.089 167.917 176.042C167.917 182.001 172.797 186.876 178.75 186.876C184.708 186.876 189.583 182.001 189.583 176.042Z" fill="#F0F4F7" stroke="#0C5286" stroke-linecap="round" stroke-linejoin="round"/>
<path d="M135.417 176.604H130.867C130.415 174.601 129.63 172.687 128.543 170.944L131.739 167.749L125.997 162.002L122.79 165.203C121.05 164.11 119.138 163.319 117.135 162.862V158.323H109.01V162.874C107.004 163.324 105.089 164.11 103.344 165.197L100.149 162.002L94.4069 167.743L97.6082 170.95C96.516 172.69 95.7249 174.601 95.2682 176.604H90.729V184.729H95.279C95.7295 186.735 96.5151 188.651 97.6027 190.395L94.4069 193.592L100.149 199.338L103.355 196.132C105.095 197.226 107.007 198.019 109.01 198.477V203.011H117.135V198.466C119.141 198.014 121.057 197.227 122.801 196.137L125.997 199.338L131.739 193.597L128.537 190.39C129.63 188.648 130.421 186.734 130.877 184.729H135.417V176.604Z" fill="#F9B536"/>
<path d="M119.28 180.667C119.273 179.024 118.617 177.45 117.454 176.288C116.291 175.126 114.716 174.472 113.073 174.466C111.429 174.472 109.854 175.126 108.692 176.288C107.529 177.45 106.872 179.024 106.865 180.667C106.865 184.08 109.66 186.875 113.073 186.875C114.717 186.87 116.293 186.213 117.456 185.051C118.619 183.888 119.274 182.312 119.28 180.667Z" fill="#F0F4F7" stroke="#0C5286" stroke-linecap="round" stroke-linejoin="round"/>
<path d="M113.772 143.509L140.812 100.241M86.6938 121.902L102.89 138.099M86.6938 121.849L102.89 105.653M167.89 121.902L151.694 138.099M167.89 121.849L151.694 105.653" stroke="#2DBCA4" stroke-linecap="round" stroke-linejoin="round"/>
</g>
<defs>
<linearGradient id="paint0_linear_900_301" x1="130" y1="0" x2="130" y2="260" gradientUnits="userSpaceOnUse">
<stop stop-color="#FC00FF" stop-opacity="0.73"/>
<stop offset="1" stop-color="#8C008D" stop-opacity="0.73"/>
</linearGradient>
<clipPath id="clip0_900_301">
<rect width="260" height="260" fill="white"/>
</clipPath>
</defs>
</svg>
