<svg width="260" height="260" viewBox="0 0 260 260" fill="none" xmlns="http://www.w3.org/2000/svg">
<path d="M130 260C201.797 260 260 201.797 260 130C260 58.203 201.797 0 130 0C58.203 0 0 58.203 0 130C0 201.797 58.203 260 130 260Z" fill="url(#paint0_linear_898_276)"/>
<path d="M194.876 76.2246C196.033 68.7451 188.922 62.8415 182.271 65.7614L49.8163 123.916C45.0472 126.01 45.3961 133.234 50.3423 134.809L77.6575 143.508C82.8714 145.168 88.5162 144.309 93.069 141.164L154.654 98.6171C156.511 97.3338 158.535 99.9746 156.948 101.61L112.618 147.314C108.318 151.748 109.171 159.261 114.344 162.505L163.977 193.628C169.543 197.119 176.704 193.613 177.745 186.885L194.876 76.2246Z" fill="white"/>
<defs>
<linearGradient id="paint0_linear_898_276" x1="130" y1="0" x2="130" y2="260" gradientUnits="userSpaceOnUse">
<stop stop-color="#37BBFE"/>
<stop offset="1" stop-color="#007DBB"/>
</linearGradient>
</defs>
</svg>
