<svg width="20" height="20" viewBox="0 0 20 20" fill="none" xmlns="http://www.w3.org/2000/svg">
<path d="M8.80225 11.0934C8.80225 11.7533 9.33882 12.2904 9.99852 12.2904C10.6588 12.2904 11.1964 11.7533 11.1964 11.0934C11.1964 10.4321 10.6588 9.89453 9.99852 9.89453C9.33882 9.89457 8.80225 10.4321 8.80225 11.0934ZM9.99856 11.7061C9.66139 11.7061 9.38711 11.4309 9.38711 11.0934C9.38711 10.7553 9.66139 10.4794 9.99856 10.4794C10.3366 10.4794 10.6116 10.7553 10.6116 11.0934C10.6116 11.4309 10.3366 11.7061 9.99856 11.7061Z" fill="#556080"/>
<path d="M9.99959 9.05472L10.8938 6.53906H9.10547L9.99959 9.05472Z" fill="#556080"/>
<path d="M11.2651 17.1879C10.9834 16.7383 10.6064 15.3795 11.3562 14.7868C11.7726 14.463 12.2522 14.518 12.7448 14.6994C12.7571 14.0815 13.0735 12.0898 13.6159 11.6474V11.6312L13.6224 11.6416C13.7604 11.5308 13.841 11.5056 14.0033 11.4401C14.2147 11.4246 14.275 11.4071 14.4793 11.4609C14.2909 10.2349 14.308 9.61102 14.7161 9.24253L13.51 7.26385C13.2289 6.80402 12.7953 6.53906 12.1343 6.53906L11.0893 9.4809C11.6052 9.83135 11.9446 10.4227 11.9446 11.093C11.9446 12.1682 11.0738 13.0387 9.99829 13.0387C8.92599 13.0387 8.05519 12.1682 8.05519 11.093C8.05519 10.4227 8.39455 9.83131 8.91014 9.4809L7.86508 6.53906C7.20182 6.53906 6.76789 6.80789 6.48938 7.26385L5.28467 9.24059C5.69403 9.60004 5.71117 10.2238 5.52078 11.4609C5.69241 11.4155 5.75878 11.4233 5.93498 11.4233C6.12501 11.4932 6.22805 11.5172 6.38056 11.6364L6.38383 11.6312V11.6389C6.92948 12.0723 7.2414 14.0361 7.25528 14.6994C7.74202 14.5212 8.22618 14.4616 8.63881 14.7829C9.39369 15.3794 9.01673 16.7383 8.74113 17.1788C8.62678 17.3562 8.46975 17.4961 8.28743 17.5939H11.7118C11.5307 17.4968 11.3758 17.3601 11.2651 17.1879Z" fill="#556080"/>
<path d="M10.0005 5.96594C11.6476 5.96594 12.9832 4.63042 12.9832 2.98202C12.9832 1.33556 11.6476 0 10.0005 0C8.35245 0 7.01758 1.3356 7.01758 2.98202C7.01758 4.63042 8.35245 5.96594 10.0005 5.96594Z" fill="#556080"/>
<path d="M5.22636 15.2865C4.60103 14.4063 4.61366 14.4206 4.04041 13.495C3.4944 12.4866 2.90272 11.2669 2.63167 10.1335C2.38454 9.0953 2.33375 8.00066 2.37712 6.93454C2.43284 5.85478 2.55295 4.99342 2.66729 4.46875C2.66729 4.46875 2.27932 5.42868 2.10026 6.90605C1.97103 7.98185 1.98463 9.06673 2.15336 10.1283C2.34282 11.3285 2.84058 12.732 3.33636 13.8532C3.85094 14.8773 3.95653 14.9919 4.45945 15.889C4.78816 16.4012 5.43229 17.238 5.77072 17.6326C4.79913 17.3177 4.64307 18.8334 5.15442 19.2336C5.62462 19.6015 6.48901 19.1657 6.65709 18.8949C6.83066 18.6268 6.62239 18.1837 6.22607 17.8703C6.37208 17.8741 6.52016 17.8243 6.63506 17.7161C6.84168 17.5237 6.89445 17.1455 6.66419 16.8981C5.09132 15.2152 5.64411 15.8358 5.22636 15.2865Z" fill="#556080"/>
<path d="M2.97068 4.01194C3.27086 4.12209 3.63781 3.87658 3.82889 3.47174C3.99403 3.06497 4.40532 1.89532 4.16373 1.71065C3.88881 1.51501 2.97552 2.51254 2.78254 2.98149C2.56842 3.43616 2.67143 3.90192 2.97068 4.01194Z" fill="#556080"/>
<path d="M3.13722 4.91557C3.07472 4.94987 3.018 4.98416 2.97563 5.02116C2.66601 5.26336 2.54296 5.78867 2.71169 6.139C2.74215 6.20247 2.7852 6.24459 2.82667 6.28929C3.01513 6.48558 3.29304 6.4882 3.51579 6.28538C3.7791 6.01982 4.41674 5.20183 4.30953 4.87022C4.21169 4.56512 3.52354 4.70444 3.13722 4.91557Z" fill="#556080"/>
<path d="M8.16008 15.3973C7.87116 15.1726 7.08165 15.5819 6.8589 15.8118C6.64095 16.0437 6.72995 16.4809 7.09077 16.762C7.4499 17.0444 7.90654 17.0334 8.07979 16.7647C8.24949 16.4939 8.44799 15.6253 8.16008 15.3973Z" fill="#556080"/>
<path d="M3.60618 9.21745C3.77071 8.87999 4.42393 7.56901 4.25161 7.30809C4.04757 6.99455 2.94619 7.85018 2.73405 8.19216C2.20454 8.90715 3.10161 10.0095 3.60618 9.21745Z" fill="#556080"/>
<path d="M3.33545 11.2405C3.17838 11.6505 3.37947 12.2152 3.76034 12.4335C4.14118 12.6537 4.51846 12.4588 4.63147 12.0644C4.69659 11.6368 5.0217 10.0299 4.7565 9.81099C4.43393 9.53381 3.45948 10.7904 3.33545 11.2405Z" fill="#556080"/>
<path d="M5.67153 15.4097C6.17159 15.5153 6.50348 15.163 6.47826 14.6927C6.37683 14.1985 6.19128 12.3603 5.84414 12.2192C5.40081 12.0216 4.74174 13.705 4.77188 14.2477C4.74303 14.751 5.17248 15.3067 5.67153 15.4097Z" fill="#556080"/>
<path d="M1.96887 5.98036C2.24803 5.69079 2.36721 5.18496 2.24734 4.79764C2.1146 4.42459 1.60874 3.54306 1.27483 3.81189C0.91437 4.09819 0.981749 5.45375 1.1644 5.83273C1.32574 6.22647 1.69003 6.2673 1.96887 5.98036Z" fill="#556080"/>
<path d="M1.7366 9.40865C1.92413 9.05238 1.89657 8.53228 1.67216 8.19482C1.42504 7.89496 0.494688 6.61839 0.245628 6.94867C-0.0561651 7.33208 0.621618 9.19614 0.923774 9.4922C1.18833 9.82579 1.54971 9.76418 1.7366 9.40865Z" fill="#556080"/>
<path d="M1.61669 13.3415C2.02734 13.6303 2.40458 13.4361 2.48818 12.9729C2.57141 12.5086 2.36835 11.9354 2.01019 11.6296C1.63517 11.3764 0.199229 10.2196 0.024972 10.6691C-0.20105 11.2022 1.16977 13.1135 1.61669 13.3415Z" fill="#556080"/>
<path d="M3.5791 15.0489C3.0778 14.9057 1.11622 14.0825 1.07769 14.637C0.999984 15.3138 3.20053 16.9919 3.78991 17.0801C4.35436 17.2562 4.68634 16.9032 4.59761 16.3637C4.50788 15.8222 4.07746 15.2659 3.5791 15.0489Z" fill="#556080"/>
<path d="M14.229 17.6326C15.244 16.4499 15.9348 15.3034 16.6634 13.8532C17.1492 12.7553 17.6524 11.357 17.8465 10.1283C18.0035 9.14057 18.0126 8.22087 17.9497 7.41837C17.8591 6.24154 17.5738 5.06588 17.3325 4.46875C17.4773 5.13197 17.6247 6.30436 17.6353 7.43003C17.6457 8.32714 17.5758 9.26112 17.3682 10.1342C17.075 11.3635 16.4931 12.5087 15.9594 13.4951C14.6358 15.6311 14.4701 15.6844 13.3359 16.8981C13.1053 17.1462 13.1584 17.5244 13.3648 17.7161C13.4797 17.8243 13.6277 17.8741 13.7738 17.8703C13.3774 18.1837 13.1691 18.6268 13.3427 18.8949C13.5108 19.1657 14.3751 19.6016 14.8454 19.2336C15.3149 18.8657 15.0879 17.9324 14.8668 17.7038C14.7284 17.5567 14.4871 17.549 14.229 17.6326Z" fill="#556080"/>
<path d="M17.0291 4.01194C17.3282 3.90188 17.4312 3.43616 17.2172 2.98149C17.0241 2.51254 16.1109 1.51501 15.8359 1.71065C15.5944 1.89532 16.0056 3.06497 16.1708 3.47174C16.3619 3.87658 16.7288 4.12213 17.0291 4.01194Z" fill="#556080"/>
<path d="M17.2881 6.13728C17.4569 5.78691 17.3338 5.26164 17.0242 5.01943C16.7347 4.7713 15.8065 4.50707 15.6902 4.8685C15.583 5.20011 16.2207 6.0181 16.484 6.28366C16.7797 6.55249 17.1437 6.43847 17.2881 6.13728Z" fill="#556080"/>
<path d="M13.1408 15.8118C12.918 15.582 12.1284 15.1726 11.8396 15.3973C11.5521 15.6253 11.7502 16.4939 11.9199 16.7647C12.0931 17.0334 12.5498 17.0444 12.9089 16.762C13.2696 16.4809 13.3587 16.0437 13.1408 15.8118Z" fill="#556080"/>
<path d="M15.7484 7.30809C15.5761 7.56905 16.2293 8.87999 16.3939 9.21745C16.5869 9.52054 16.9483 9.5821 17.207 9.29972C17.4512 9.03803 17.4761 8.4758 17.266 8.19216C17.0538 7.85018 15.9524 6.99455 15.7484 7.30809Z" fill="#556080"/>
<path d="M16.2402 12.4335C16.6208 12.2152 16.8219 11.6505 16.6648 11.2405C16.5407 10.7904 15.5663 9.53381 15.2437 9.81099C14.9785 10.03 15.3036 11.6368 15.3688 12.0644C15.4818 12.4588 15.859 12.6537 16.2402 12.4335Z" fill="#556080"/>
<path d="M14.1554 12.2192C13.8083 12.3603 13.6227 14.1985 13.5214 14.6927C13.4961 15.163 13.828 15.5153 14.3281 15.4097C14.8271 15.3067 15.2566 14.751 15.2277 14.2477C15.2578 13.705 14.5988 12.0216 14.1554 12.2192Z" fill="#556080"/>
<path d="M18.8354 5.87375C19.018 5.49477 19.0854 4.1392 18.725 3.8529C18.3911 3.58407 17.8852 4.46561 17.7524 4.83865C17.6326 5.22602 17.7518 5.73185 18.031 6.02137C18.3098 6.30832 18.6741 6.26749 18.8354 5.87375Z" fill="#556080"/>
<path d="M18.2628 9.40865C18.4498 9.76414 18.8111 9.82579 19.0757 9.4922C19.3779 9.19614 20.0557 7.33208 19.7539 6.94867C19.5049 6.61839 18.5744 7.89496 18.3273 8.19482C18.1029 8.53232 18.0753 9.05238 18.2628 9.40865Z" fill="#556080"/>
<path d="M17.5117 12.9729C17.5953 13.436 17.9726 13.6303 18.3832 13.3415C18.8301 13.1135 20.201 11.2022 19.9749 10.6691C19.8007 10.2196 18.3647 11.3764 17.9897 11.6296C17.6316 11.9353 17.4285 12.5085 17.5117 12.9729Z" fill="#556080"/>
<path d="M16.4205 15.0489C15.9221 15.2658 15.4916 15.8222 15.4019 16.3637C15.3133 16.9032 15.6452 17.2562 16.2096 17.0801C16.799 16.9919 18.9996 15.3139 18.9219 14.637C18.8833 14.0825 16.9217 14.9058 16.4205 15.0489Z" fill="#556080"/>
</svg>
