<svg width="20" height="20" viewBox="0 0 20 20" fill="none" xmlns="http://www.w3.org/2000/svg">
<g clip-path="url(#clip0_996_14)">
<path d="M17.5109 14.3516H2.48864C1.71474 14.3516 1.08521 14.981 1.08521 15.7548C1.08521 16.5288 1.71474 17.1584 2.48864 17.1584H17.5109C18.2849 17.1584 18.9146 16.5288 18.9146 15.7548C18.9146 14.9811 18.2849 14.3516 17.5109 14.3516Z" fill="white"/>
<path d="M16.6389 13.3089C16.3009 12.7474 16.1223 12.1071 16.1223 11.4575V8.37844C16.1223 5.3259 13.8682 2.74289 10.8587 2.32023C11.0811 2.065 11.2022 1.74371 11.2022 1.40328C11.2022 0.629453 10.5725 0 9.79851 0C9.02476 0 8.39522 0.629453 8.39522 1.40328C8.39522 1.7675 8.54089 2.11703 8.79858 2.37969C5.93972 2.9484 3.87765 5.45168 3.87765 8.37848V11.4575C3.87765 12.107 3.69901 12.7472 3.36108 13.3089L3.30444 13.4031H16.6956L16.6389 13.3089Z" fill="white"/>
<path d="M7.88872 18.39C8.04868 19.3232 8.85177 20.0005 9.79825 20.0005C10.7449 20.0005 11.5483 19.3232 11.7083 18.39L11.7208 18.3174H7.87622L7.88872 18.39Z" fill="white"/>
</g>
<defs>
<clipPath id="clip0_996_14">
<rect width="20" height="20" fill="white"/>
</clipPath>
</defs>
</svg>
