<svg width="24" height="35" viewBox="0 0 24 35" fill="none" xmlns="http://www.w3.org/2000/svg">
<path d="M11.7908 0C5.30474 0 0.0271206 5.28337 0.0130186 11.7664C-0.125377 14.8338 0.864992 17.0887 1.77896 18.8501C2.69844 20.6222 3.43122 21.8877 3.43667 23.5128C3.43822 23.8995 3.59333 24.2699 3.86788 24.5423C4.14243 24.8147 4.51395 24.9669 4.90071 24.9654H18.6808C19.0676 24.9639 19.4379 24.8088 19.7103 24.5342C19.9827 24.2597 20.1349 23.8881 20.1335 23.5014C20.1335 21.9319 20.906 20.479 21.8254 18.6365C22.7377 16.808 23.7336 14.5792 23.5685 11.7578C23.5465 5.27967 18.2733 1.65354e-06 11.7908 0ZM15.1033 9.02344C15.1442 9.02172 15.185 9.02172 15.2258 9.02344C15.4261 9.02922 15.6231 9.07621 15.8044 9.16148C15.9857 9.24675 16.1475 9.36847 16.2797 9.51904C16.5342 9.80875 16.6636 10.1875 16.6395 10.5723C16.6155 10.9572 16.4401 11.3169 16.1515 11.5727L12.1667 15.0846C11.8898 15.3297 11.5302 15.4604 11.1606 15.4503C10.791 15.4403 10.4389 15.2902 10.1758 15.0305L8.10791 12.9626C7.97167 12.8271 7.86355 12.666 7.78978 12.4886C7.716 12.3111 7.67803 12.1209 7.67803 11.9287C7.67803 11.7365 7.716 11.5463 7.78978 11.3688C7.86355 11.1914 7.97167 11.0303 8.10791 10.8948C8.24343 10.7585 8.40453 10.6504 8.58197 10.5767C8.75941 10.5029 8.94967 10.4649 9.14184 10.4649C9.334 10.4649 9.52427 10.5029 9.7017 10.5767C9.87914 10.6504 10.0402 10.7585 10.1758 10.8948L11.2638 11.9942L14.2118 9.38802C14.4591 9.16903 14.7735 9.04049 15.1033 9.02344Z" fill="black"/>
<path d="M3.80416 22.1026C3.61074 22.1004 3.41881 22.1366 3.23953 22.2093C3.06025 22.2819 2.89722 22.3895 2.75991 22.5257C2.62261 22.662 2.51378 22.8242 2.43976 23.0029C2.36573 23.1816 2.328 23.3732 2.32875 23.5667V26.4406C2.3229 31.2429 6.65294 34.9736 11.7794 34.977C16.9059 34.9803 21.2461 31.2549 21.2529 26.452V23.7376C21.2514 23.3547 21.0994 22.9878 20.8298 22.7161C20.5601 22.4443 20.1945 22.2895 19.8117 22.2849L3.80416 22.1026ZM5.31661 27.0644H18.265C18.1239 28.1577 17.6244 29.1583 16.8466 29.9811H6.72937C5.95402 29.1585 5.45683 28.1568 5.31661 27.0644Z" fill="black"/>
</svg>
