<svg width="260" height="260" viewBox="0 0 260 260" fill="none" xmlns="http://www.w3.org/2000/svg">
<g clip-path="url(#clip0_1058_55)">
<path d="M130 260C201.797 260 260 201.797 260 130C260 58.203 201.797 0 130 0C58.203 0 0 58.203 0 130C0 201.797 58.203 260 130 260Z" fill="white"/>
<path d="M156.205 125.701C156.205 143.307 144.331 149.04 130 149.04C115.669 149.04 103.795 143.307 103.795 125.701C103.795 108.095 115.465 84.9609 130 84.9609C144.536 84.9609 156.205 108.095 156.205 125.701Z" fill="#F9B54C"/>
<path d="M157.433 121.811L156 194.489L147.606 218.237L132.866 260C132.047 260 131.433 260 130.614 260C130.41 260 130 260 129.591 260C129.386 260 128.977 260 128.567 260C127.748 260 126.929 260 126.315 260L111.575 219.056L99.2915 184.662V129.182L103.591 118.945L103.795 119.15L105.229 120.583L121.402 137.371L124.268 140.237L129.386 137.371L129.591 137.166L134.095 134.709L153.953 123.449L155.795 122.426L157.433 121.811Z" fill="#E6E9EE"/>
<path d="M120.992 137.37L115.669 144.535L122.425 153.543H137.575L144.331 144.535L139.008 137.37H120.992Z" fill="#F1543F"/>
<path d="M151.291 240.551L143.921 248.945L134.299 259.795C133.89 259.795 133.48 259.795 133.071 259.795C132.252 259.795 131.638 259.795 130.819 259.795C130.614 259.795 130.205 259.795 129.795 259.795C129.591 259.795 129.181 259.795 128.772 259.795C127.953 259.795 127.134 259.795 126.52 259.795C126.11 259.795 125.701 259.795 125.496 259.795L115.874 248.945L108.504 240.551L109.528 234.614L111.984 218.85L115.465 196.33L122.22 153.543H137.37L144.331 196.33L147.811 218.236L150.472 234.614L151.291 240.551Z" fill="#FF7058"/>
<path d="M75.9525 210.457C74.11 211.89 72.2675 226.221 70.2202 245.465C70.0155 245.465 69.8108 245.26 69.8108 245.26C58.7557 239.528 48.7242 232.158 39.7163 223.559C42.9919 180.567 46.0628 144.74 46.0628 144.74C46.0628 144.74 46.0628 144.74 46.0628 144.945L75.9525 210.457Z" fill="#324A5E"/>
<path d="M128.977 260C128.158 260 127.339 260 126.725 260C126.315 260 125.906 260 125.701 260C124.268 260 123.04 260 121.607 259.796C103.181 258.567 85.7797 253.654 70.4254 245.67C70.2207 245.67 70.016 245.465 70.016 245.465C62.2364 194.079 47.4963 148.426 46.4727 145.15C46.4727 145.15 46.4727 145.15 46.4727 144.945C84.7561 136.756 104.41 112.394 106.457 109.528C106.457 109.323 106.662 109.323 106.662 109.323C106.662 109.528 106.662 109.733 106.457 109.937C105.843 112.599 105.433 116.284 105.433 120.788C105.433 125.087 105.638 130 106.252 135.528C106.252 136.552 106.457 137.575 106.457 138.804C108.095 155.796 111.78 176.678 115.465 196.331C121.811 229.701 128.772 259.386 128.772 259.386C128.977 259.591 128.977 259.796 128.977 260Z" fill="#2B3B4E"/>
<path d="M128.976 260C128.157 260 127.338 260 126.724 260C126.315 260 125.905 260 125.701 260C124.268 260 123.039 260 121.606 259.795C119.764 256.315 117.921 252.835 116.079 249.15C113.827 244.646 111.779 239.732 109.732 234.819C93.5589 196.535 82.7085 152.11 82.7085 152.11C85.9841 152.52 94.7872 148.425 94.7872 148.425L82.7085 134.299C95.6061 131.024 104.614 113.827 106.661 109.937C106.866 109.528 107.071 109.323 107.071 109.118C107.071 109.323 107.071 109.528 106.866 109.732C106.252 112.394 105.842 116.079 105.842 120.583C105.842 124.882 106.047 129.795 106.661 135.323C106.661 136.347 106.866 137.37 106.866 138.598C108.504 155.591 112.189 176.473 115.874 196.126C122.22 229.496 129.181 259.181 129.181 259.181C128.976 259.591 128.976 259.795 128.976 260Z" fill="#ACB3BA"/>
<path d="M220.283 223.559C211.48 232.158 201.244 239.528 190.189 245.26C189.984 245.26 189.779 245.465 189.779 245.465C187.937 226.016 185.889 211.89 184.047 210.457L213.732 144.945C213.732 144.945 213.732 144.945 213.732 144.74C213.732 144.74 217.007 180.772 220.283 223.559Z" fill="#2B3B4E"/>
<path d="M213.732 144.741C213.732 144.945 213.732 144.945 213.732 144.741C212.708 148.221 197.968 193.874 190.189 245.26C189.984 245.26 189.779 245.465 189.779 245.465C174.22 253.449 156.819 258.567 138.598 259.591C137.165 259.591 135.937 259.796 134.504 259.796C134.094 259.796 133.685 259.796 133.275 259.796C132.457 259.796 131.842 259.796 131.023 259.796C131.023 259.591 131.023 259.386 131.023 259.386C131.023 259.386 137.984 229.701 144.331 196.331C148.016 176.678 151.496 155.591 153.338 138.804C153.338 137.78 153.543 136.756 153.543 135.733C153.953 131.433 154.157 127.339 154.362 123.859C154.567 117.922 154.157 113.213 153.338 109.937C153.338 109.733 153.338 109.528 153.134 109.323C153.134 109.323 153.134 109.323 153.338 109.528C155.181 111.78 174.834 136.552 213.732 144.741Z" fill="#324A5E"/>
<path d="M177.496 152.11C177.496 152.11 166.645 196.33 150.472 234.819C148.425 239.732 146.173 244.441 144.126 249.149C142.283 252.834 140.441 256.519 138.598 259.795C137.165 259.795 135.937 260 134.504 260C134.094 260 133.685 260 133.275 260C132.457 260 131.842 260 131.023 260C131.023 259.795 131.023 259.59 131.023 259.59C131.023 259.59 137.984 229.905 144.331 196.535C148.016 176.882 151.496 155.795 153.338 139.008C153.338 137.984 153.543 136.96 153.543 135.937C153.953 131.638 154.157 127.543 154.362 124.063C154.567 118.126 154.157 113.417 153.338 110.142C153.338 109.937 153.338 109.732 153.134 109.527C153.134 109.527 153.338 109.732 153.338 110.142C155.181 113.827 164.394 131.228 177.291 134.504L165.417 148.425C165.417 148.425 174.22 152.519 177.496 152.11Z" fill="#CED5E0"/>
<path d="M153.134 109.118C153.134 109.118 158.866 122.016 130 137.165L143.102 156.614C143.102 156.819 163.78 127.339 153.134 109.118Z" fill="white"/>
<path d="M106.866 109.118C106.866 109.118 101.134 122.016 130 137.165L116.898 156.614C116.898 156.819 96.2207 127.339 106.866 109.118Z" fill="white"/>
<path d="M164.189 66.7402C164.189 92.126 148.835 125.291 130 125.291C111.165 125.291 95.811 92.126 95.811 66.7402C95.811 41.3544 111.165 33.3701 130 33.3701C148.835 33.3701 164.189 41.3544 164.189 66.7402Z" fill="#FFD05B"/>
<path d="M171.764 79.0233C169.717 83.7319 165.827 86.5981 163.166 85.5744C160.504 84.5508 159.89 80.0469 161.937 75.3382C163.985 70.6296 167.874 67.7634 170.536 68.787C173.402 69.6059 173.811 74.3146 171.764 79.0233Z" fill="#FFD05B"/>
<path d="M88.2361 79.0233C90.2833 83.7319 94.1731 86.5981 96.8345 85.5744C99.4959 84.5508 100.11 80.0469 98.0628 75.3382C96.0156 70.6296 92.1258 67.7634 89.4644 68.787C86.5983 69.6059 86.1888 74.3146 88.2361 79.0233Z" fill="#FFD05B"/>
<path d="M129.795 42.3784C139.827 36.8508 163.165 29.0713 163.165 79.2288C163.165 79.2288 185.685 21.7012 151.291 20.8823C151.291 20.8823 127.134 -3.6846 95.811 32.1422L100.724 29.6855C100.724 29.6855 75.5433 44.4256 97.0393 79.2288C97.0393 79.2288 93.3543 28.8666 121.197 42.5831C123.858 44.0162 127.134 43.8115 129.795 42.3784Z" fill="#324A5E"/>
<path d="M158.457 82.7091H137.984C135.732 82.7091 133.89 80.8666 133.89 78.6146V71.0398C133.89 68.7878 135.732 66.9453 137.984 66.9453H158.457C160.709 66.9453 162.551 68.7878 162.551 71.0398V78.6146C162.551 80.8666 160.709 82.7091 158.457 82.7091Z" stroke="#2C9984" stroke-width="1.549" stroke-miterlimit="10"/>
<path d="M122.016 82.7091H101.543C99.2913 82.7091 97.4487 80.8666 97.4487 78.6146V71.0398C97.4487 68.7878 99.2913 66.9453 101.543 66.9453H122.016C124.268 66.9453 126.11 68.7878 126.11 71.0398V78.6146C125.905 80.8666 124.063 82.7091 122.016 82.7091Z" stroke="#2C9984" stroke-width="1.549" stroke-miterlimit="10"/>
<path d="M126.11 73.2921C126.11 71.0401 127.953 69.4023 130 69.4023C132.047 69.4023 133.89 71.2449 133.89 73.2921" stroke="#2C9984" stroke-width="1.549" stroke-miterlimit="10" stroke-linecap="round"/>
</g>
<defs>
<clipPath id="clip0_1058_55">
<rect width="260" height="260" fill="white"/>
</clipPath>
</defs>
</svg>
