<svg width="24" height="35" viewBox="0 0 24 35" fill="none" xmlns="http://www.w3.org/2000/svg">
<path d="M11.7908 0C5.30474 0 0.0271206 5.28337 0.0130186 11.7664C-0.125377 14.8338 0.864992 17.0887 1.77896 18.8501C2.69844 20.6222 3.43122 21.8877 3.43667 23.5128C3.43822 23.8995 3.59333 24.2699 3.86788 24.5423C4.14243 24.8147 4.51395 24.9669 4.90071 24.9654H18.6808C19.0676 24.9639 19.4379 24.8088 19.7103 24.5342C19.9827 24.2597 20.1349 23.8881 20.1335 23.5014C20.1335 21.9319 20.906 20.479 21.8254 18.6365C22.7377 16.808 23.7336 14.5792 23.5685 11.7578C23.5465 5.27967 18.2733 1.65354e-06 11.7908 0ZM15.1033 9.02344C15.1442 9.02172 15.185 9.02172 15.2258 9.02344C15.4261 9.02922 15.6231 9.07621 15.8044 9.16148C15.9857 9.24675 16.1475 9.36847 16.2797 9.51904C16.5342 9.80875 16.6636 10.1875 16.6395 10.5723C16.6155 10.9572 16.4401 11.3169 16.1515 11.5727L12.1667 15.0846C11.8898 15.3297 11.5302 15.4604 11.1606 15.4503C10.791 15.4403 10.4389 15.2902 10.1758 15.0305L8.10791 12.9626C7.97167 12.8271 7.86355 12.666 7.78978 12.4886C7.716 12.3111 7.67803 12.1209 7.67803 11.9287C7.67803 11.7365 7.716 11.5463 7.78978 11.3688C7.86355 11.1914 7.97167 11.0303 8.10791 10.8948C8.24343 10.7585 8.40453 10.6504 8.58197 10.5767C8.75941 10.5029 8.94967 10.4649 9.14184 10.4649C9.334 10.4649 9.52427 10.5029 9.7017 10.5767C9.87914 10.6504 10.0402 10.7585 10.1758 10.8948L11.2638 11.9942L14.2118 9.38802C14.4591 9.16903 14.7735 9.04049 15.1033 9.02344Z" fill="black"/>
<path d="M3.80403 22.1036C3.61062 22.1014 3.41868 22.1376 3.23941 22.2103C3.06013 22.2829 2.8971 22.3905 2.75979 22.5267C2.62249 22.663 2.51366 22.8252 2.43963 23.0039C2.36561 23.1826 2.32788 23.3742 2.32862 23.5676V26.4416C2.32278 31.2439 6.65282 34.9746 11.7793 34.978C16.9058 34.9813 21.246 31.2559 21.2528 26.453V23.7385C21.2513 23.3557 21.0993 22.9888 20.8297 22.7171C20.56 22.4453 20.1943 22.2904 19.8115 22.2859L3.80403 22.1036ZM5.31649 27.0654H18.2649C18.1237 28.1587 17.6243 29.1592 16.8464 29.982H6.72925C5.95389 29.1595 5.45671 28.1577 5.31649 27.0654Z" fill="black"/>
</svg>
