<svg width="60" height="60" viewBox="0 0 60 60" fill="none" xmlns="http://www.w3.org/2000/svg">
<rect width="60" height="60" fill="black"/>
<path d="M20.4971 32.0098C19.8135 32.0098 19.1624 31.8796 18.5439 31.6191C17.9417 31.3424 17.4128 30.9844 16.957 30.5449C16.5013 30.0892 16.1432 29.5602 15.8828 28.958C15.6224 28.3395 15.4922 27.6885 15.4922 27.0049V16.9951C15.4922 16.3115 15.6224 15.6686 15.8828 15.0664C16.1432 14.4479 16.5013 13.9189 16.957 13.4795C17.4128 13.0238 17.9417 12.6657 18.5439 12.4053C19.1624 12.1286 19.8135 11.9902 20.4971 11.9902H37.4893C38.1729 11.9902 38.8158 12.1286 39.418 12.4053C40.0365 12.6657 40.5736 13.0238 41.0293 13.4795C41.485 13.9189 41.8431 14.4479 42.1035 15.0664C42.3639 15.6686 42.4941 16.3115 42.4941 16.9951V21.5117H37.4893V16.9951H20.4971V27.0049H37.4893C38.1729 27.0049 38.8158 27.1351 39.418 27.3955C40.0365 27.6559 40.5736 28.014 41.0293 28.4697C41.485 28.9255 41.8431 29.4626 42.1035 30.0811C42.3639 30.6833 42.4941 31.3262 42.4941 32.0098V41.9951C42.4941 42.6787 42.3639 43.3298 42.1035 43.9482C41.8431 44.5505 41.485 45.0794 41.0293 45.5352C40.5736 45.9909 40.0365 46.349 39.418 46.6094C38.8158 46.8698 38.1729 47 37.4893 47H20.0088C19.3252 47 18.6742 46.8698 18.0557 46.6094C17.4535 46.349 16.9245 45.9909 16.4688 45.5352C16.013 45.0794 15.6549 44.5505 15.3945 43.9482C15.1341 43.3298 15.0039 42.6787 15.0039 41.9951V37.5029H20.0088V41.9951H37.4893V32.0098H20.4971Z" fill="white"/>
</svg>
