<svg width="23" height="35" viewBox="0 0 23 35" fill="none" xmlns="http://www.w3.org/2000/svg">
<path d="M22.6548 9.95321V9.85974C22.6548 3.7561 17.8184 0 10.9172 0C6.93636 0 3.77178 1.12231 1.23681 2.85992C-0.236828 3.86985 -0.369494 6.08398 0.710131 7.50884L1.49742 8.54789C2.57704 9.97212 4.51028 10.1075 6.07527 9.24308C7.5015 8.45517 8.94801 8.02867 10.3067 8.02867C12.5601 8.02867 13.8279 9.01421 13.8279 10.6111V10.6577C13.8279 12.677 11.9028 15.5625 6.45647 16.0317L6.26892 16.2429C6.16538 16.3594 6.29605 17.8872 6.56002 19.6545L6.77669 21.0957C7.04065 22.863 8.52711 24.2953 10.0956 24.2953C11.6641 24.2953 13.0624 23.6226 13.2169 22.7933C13.3732 21.9635 13.4991 21.2906 13.4991 21.2906C18.7098 20.0222 22.6548 15.8693 22.6548 9.95321Z" fill="#010002"/>
<path d="M8.56509 27.0176C6.77808 27.0176 5.3302 28.4662 5.3302 30.2532V31.7641C5.3302 33.5511 6.77883 34.9997 8.56509 34.9997H11.3431C13.1301 34.9997 14.5788 33.5511 14.5788 31.7641V30.2532C14.5788 28.4662 13.1295 27.0176 11.3431 27.0176H8.56509Z" fill="#010002"/>
</svg>
