<svg width="280" height="275" viewBox="0 0 280 275" fill="none" xmlns="http://www.w3.org/2000/svg">
<g clip-path="url(#clip0_898_240)">
<path d="M279.956 125H130.044C130.02 125 130 125.02 130 125.044V274.956C130 274.98 130.02 275 130.044 275H279.956C279.98 275 280 274.98 280 274.956V125.044C280 125.02 279.98 125 279.956 125Z" fill="#F7DF1E"/>
<path d="M224.922 233.398C227.852 238.379 231.953 241.895 238.691 241.895C244.551 241.895 248.359 238.965 248.359 234.863C248.359 230.176 244.551 228.418 238.105 225.488L234.59 224.023C224.336 219.629 217.598 214.355 217.598 202.93C217.598 192.383 225.508 184.18 238.105 184.18C247.188 184.18 253.633 187.402 258.027 195.605L247.188 202.637C244.844 198.242 242.207 196.484 238.105 196.484C234.004 196.484 231.367 199.121 231.367 202.637C231.367 206.738 234.004 208.496 240.156 211.133L243.672 212.598C255.684 217.871 262.422 222.852 262.422 234.863C262.422 247.461 252.461 254.492 238.984 254.492C225.801 254.492 217.305 248.34 213.203 240.137L224.922 233.398ZM175.117 234.57C177.461 238.379 179.219 241.895 184.199 241.895C188.887 241.895 191.816 240.137 191.816 233.105V184.473H205.879V232.52C205.879 247.168 197.383 253.613 184.785 253.613C173.359 253.613 166.914 247.754 163.691 240.723L175.117 234.57Z" fill="black"/>
</g>
<g clip-path="url(#clip1_898_240)">
<path d="M129.369 189.925C139.781 189.925 143.631 182.663 147.244 171.775C150.994 160.556 150.831 149.775 147.244 135.413C144.663 125.069 139.781 117.263 129.369 117.263H115.944V133.138C115.944 145.463 105.494 155.844 93.5752 155.844H57.8252C48.0502 155.844 39.9502 164.213 39.9502 174.019V208.106C39.9502 217.813 48.3877 223.506 57.8252 226.281C69.1439 229.594 80.0252 230.194 93.5814 226.281C102.588 223.669 111.463 218.406 111.463 208.106V194.475H75.7314V189.919L129.369 189.925Z" fill="#F2BB30"/>
<path d="M21.5248 189.931H33.8123V173.594C33.8123 161.769 44.0248 151.363 56.181 151.363H91.9373C101.881 151.363 109.812 143.163 109.812 133.181V99.0563C109.812 89.3438 101.644 82.0751 91.9373 80.4376C79.9498 78.4626 66.9248 78.5626 56.181 80.4751L56.1873 80.4688C41.0498 83.1438 38.306 88.7376 38.306 99.0813V112.706H74.0998V117.269H24.8748C14.456 117.269 5.34978 123.531 2.51228 135.425C-0.768974 149.05 -0.906474 157.55 2.51228 171.788C5.04978 182.363 11.1185 189.931 21.5248 189.931Z" fill="#35668F"/>
<path d="M75.0002 155.844H57.8252C48.0502 155.844 39.9502 164.212 39.9502 174.019V208.106C39.9502 217.812 48.3877 223.506 57.8252 226.281C63.5252 227.95 69.1189 228.931 75.0002 228.994V155.844Z" fill="#D3A32A"/>
<path d="M73.9187 79C67.7062 79 61.6437 79.5063 56.175 80.475L56.1813 80.4688C41.05 83.1438 38.3063 88.7375 38.3063 99.0813V112.706H74.1V117.269H24.875C14.4563 117.269 5.35 123.531 2.5125 135.425C0.8875 142.181 0.03125 147.681 0 153.238V153.869C0.03125 159.319 0.85 164.875 2.5125 171.787C5.05 182.362 11.1188 189.931 21.525 189.931H33.8125V173.594C33.8125 161.769 44.025 151.363 56.1813 151.363H75V79.0063C74.6375 79 74.2812 79 73.9187 79Z" fill="#2E597C"/>
<path d="M113.944 124.981H113.95V124.956L113.944 124.981Z" fill="white"/>
<path d="M95.8249 203.556C99.5374 203.556 102.556 206.606 102.556 210.356C102.556 214.143 99.5437 217.187 95.8249 217.187C92.1374 217.187 89.0937 214.106 89.0937 210.356C89.1312 206.568 92.1499 203.556 95.8249 203.556ZM53.9374 103.6C50.2249 103.6 47.2124 100.55 47.2124 96.7996C47.2499 93.0184 50.2249 89.9746 53.9374 89.9746C57.6249 89.9746 60.6687 93.0559 60.6687 96.8059C60.6687 100.55 57.6562 103.6 53.9374 103.6Z" fill="white"/>
<path d="M53.9374 89.9746C50.2249 89.9746 47.2437 93.0184 47.2124 96.8059C47.2124 100.556 50.2249 103.606 53.9374 103.606V89.9746ZM95.8249 203.556C92.1124 203.556 89.1311 206.6 89.0999 210.387C89.0999 214.137 92.1124 217.187 95.8249 217.187V203.556Z" fill="#DEDEDE"/>
</g>
<path d="M231.234 35.9766L174.633 3.39844C173.695 2.8125 172.406 2.57812 171 2.57812C169.594 2.57812 168.305 2.92969 167.367 3.39844L111.117 36.0938C109.125 37.2656 107.719 40.1953 107.719 42.4219V107.695C107.719 108.984 107.953 110.508 108.891 111.797L234.047 39.1406C233.344 37.7344 232.289 36.6797 231.234 35.9766Z" fill="#D26383"/>
<path d="M108.539 111.68C109.125 112.617 109.945 113.438 110.766 113.906L167.25 146.602C168.188 147.188 169.477 147.422 170.883 147.422C172.289 147.422 173.578 147.07 174.516 146.602L230.766 113.906C232.758 112.734 234.164 109.805 234.164 107.578V42.3047C234.164 41.25 234.047 40.0781 233.461 39.0234L108.539 111.68Z" fill="#9C033A"/>
<path d="M195.961 89.1797C191.039 97.8516 181.664 103.711 171 103.711C155.18 103.711 142.289 90.8203 142.289 75C142.289 59.1797 155.18 46.2891 171 46.2891C181.664 46.2891 191.039 52.1484 195.961 60.9375L211.195 52.1484C203.227 38.2031 188.227 28.7109 171 28.7109C145.453 28.7109 124.711 49.4531 124.711 75C124.711 100.547 145.453 121.289 171 121.289C188.109 121.289 203.109 111.914 211.078 98.0859L195.961 89.1797Z" fill="white"/>
<path d="M192.211 72.4219H198.305V66.2109H203.461V72.4219H209.672V77.5781H203.461V83.6719H198.305V77.5781H192.211V72.4219ZM213.891 72.4219H219.984V66.2109H225.141V72.4219H231.352V77.5781H225.141V83.6719H219.984V77.5781H213.891V72.4219Z" fill="white"/>
<defs>
<clipPath id="clip0_898_240">
<rect x="130" y="125" width="150" height="150" rx="20" fill="white"/>
</clipPath>
<clipPath id="clip1_898_240">
<rect width="150" height="150" fill="white" transform="translate(0 79)"/>
</clipPath>
</defs>
</svg>
