<svg width="30" height="30" viewBox="0 0 30 30" fill="none" xmlns="http://www.w3.org/2000/svg">
<path d="M28.2468 2.39837C27.9721 2.22308 27.6202 2.21837 27.3425 2.38722L1.77134 17.8449C1.48162 18.0198 1.32219 18.3489 1.36419 18.6841C1.40577 19.0197 1.64105 19.2995 1.96377 19.3981L9.96262 21.8439L11.0105 27.0489C11.0713 27.3494 11.2873 27.5945 11.5779 27.6922C11.6671 27.7222 11.7592 27.7368 11.8509 27.7368C12.0566 27.7368 12.2598 27.6622 12.4188 27.5217L16.5579 23.8608L25.0539 26.4588C25.1358 26.4841 25.2206 26.4965 25.3046 26.4965C25.4705 26.4965 25.6346 26.4485 25.7761 26.3555C25.9891 26.2149 26.1288 25.9869 26.1571 25.7332L28.6376 3.21437C28.6732 2.89037 28.5219 2.57408 28.2468 2.39837ZM12.3978 25.2519L11.8265 22.4135L14.6358 23.2728L12.3978 25.2519ZM24.5662 24.5169L13.9235 21.2628L22.5399 11.1554C22.6933 10.9754 22.6723 10.7049 22.4919 10.5515C22.3123 10.3977 22.0411 10.4191 21.8881 10.5995L13.0308 20.9898L4.29948 18.3202L26.7433 4.75251L24.5662 24.5169Z" fill="url(#paint0_linear_999_4)"/>
<path d="M23.796 17.0174C23.814 17.0199 23.8316 17.0208 23.8492 17.0208C24.0626 17.0208 24.2473 16.8618 24.2739 16.6449L24.3536 16.0021C24.3827 15.7668 24.216 15.5529 23.9812 15.5242C23.7467 15.4929 23.5324 15.6622 23.5033 15.8967L23.4236 16.5395C23.3944 16.7748 23.5616 16.9887 23.796 17.0174Z" fill="url(#paint1_linear_999_4)"/>
<path d="M23.2248 21.5983C23.2454 21.6013 23.2659 21.6026 23.2861 21.6026C23.4957 21.6026 23.6791 21.4488 23.7099 21.2349L24.1209 18.3673C24.1544 18.1329 23.9915 17.916 23.7571 17.8822C23.5248 17.8492 23.3062 18.0116 23.2719 18.246L22.8609 21.1136C22.8279 21.348 22.9908 21.5645 23.2248 21.5983Z" fill="url(#paint2_linear_999_4)"/>
<defs>
<linearGradient id="paint0_linear_999_4" x1="15.0002" y1="2.26367" x2="15.0002" y2="27.7368" gradientUnits="userSpaceOnUse">
<stop/>
<stop offset="1"/>
</linearGradient>
<linearGradient id="paint1_linear_999_4" x1="23.8886" y1="15.5205" x2="23.8886" y2="17.0208" gradientUnits="userSpaceOnUse">
<stop/>
<stop offset="1"/>
</linearGradient>
<linearGradient id="paint2_linear_999_4" x1="23.491" y1="17.8779" x2="23.491" y2="21.6026" gradientUnits="userSpaceOnUse">
<stop/>
<stop offset="1"/>
</linearGradient>
</defs>
</svg>
