<svg width="14" height="14" viewBox="0 0 14 14" fill="none" xmlns="http://www.w3.org/2000/svg">
<path d="M1.50639 8.50693C2.33835 8.50693 3.01279 7.83249 3.01279 7.00054C3.01279 6.16858 2.33835 5.49414 1.50639 5.49414C0.674436 5.49414 0 6.16858 0 7.00054C0 7.83249 0.674436 8.50693 1.50639 8.50693Z" fill="#5E5E5E"/>
<path d="M7.00005 8.50693C7.83201 8.50693 8.50644 7.83249 8.50644 7.00054C8.50644 6.16858 7.83201 5.49414 7.00005 5.49414C6.16809 5.49414 5.49365 6.16858 5.49365 7.00054C5.49365 7.83249 6.16809 8.50693 7.00005 8.50693Z" fill="#5E5E5E"/>
<path d="M12.4937 8.50693C13.3257 8.50693 14.0001 7.83249 14.0001 7.00054C14.0001 6.16858 13.3257 5.49414 12.4937 5.49414C11.6617 5.49414 10.9873 6.16858 10.9873 7.00054C10.9873 7.83249 11.6617 8.50693 12.4937 8.50693Z" fill="#5E5E5E"/>
</svg>
