<svg width="100" height="100" viewBox="0 0 100 100" fill="none" xmlns="http://www.w3.org/2000/svg">
<g clip-path="url(#clip0_1048_2)">
<path fill-rule="evenodd" clip-rule="evenodd" d="M50.0002 8.33398C26.9883 8.33398 8.3335 26.9888 8.3335 50.0006C8.3335 73.0123 26.9883 91.6673 50.0002 91.6673C73.0118 91.6673 91.6668 73.0123 91.6668 50.0006C91.6668 26.9888 73.0118 8.33398 50.0002 8.33398ZM35.4168 35.4173C35.4168 27.3632 41.946 20.834 50.0002 20.834C58.0543 20.834 64.5835 27.3632 64.5835 35.4173C64.5835 43.4715 58.0543 50.0006 50.0002 50.0006C41.946 50.0006 35.4168 43.4715 35.4168 35.4173ZM21.9927 68.0823C28.8624 62.4665 38.8948 58.334 50.0002 58.334C61.1056 58.334 71.1381 62.4665 78.0077 68.0823C72.0706 77.2602 61.7447 83.334 50.0002 83.334C38.2558 83.334 27.9301 77.2602 21.9927 68.0823Z" fill="url(#paint0_linear_1048_2)"/>
</g>
<defs>
<linearGradient id="paint0_linear_1048_2" x1="50.0002" y1="8.33398" x2="50.0002" y2="91.6673" gradientUnits="userSpaceOnUse">
<stop stop-color="#FC00FF" stop-opacity="0.99"/>
<stop offset="1" stop-color="#00DBDE"/>
</linearGradient>
<clipPath id="clip0_1048_2">
<rect width="100" height="100" fill="white"/>
</clipPath>
</defs>
</svg>
