<svg width="492" height="410" viewBox="0 0 492 410" fill="none" xmlns="http://www.w3.org/2000/svg">
<path d="M185.388 8.37298L7.84399 185.917C2.77999 190.981 -9.25728e-06 197.737 -8.93609e-06 205.085C-8.6212e-06 212.289 2.77999 219.041 7.84399 224.105L185.388 401.653C195.88 412.141 212.956 412.141 223.44 401.653L239.568 385.533C244.628 380.469 247.412 373.713 247.412 366.505C247.412 359.301 244.628 352.313 239.568 347.253L135.984 243.445L465.068 243.445C479.9 243.445 492 231.829 492 216.997L492 194.197C492 179.365 479.9 166.573 465.068 166.573L134.816 166.573L239.568 62.177C244.628 57.117 247.412 50.541 247.412 43.333C247.412 36.125 244.628 29.469 239.568 24.401L223.44 8.329C212.952 -2.163 195.88 -2.12302 185.388 8.37298Z" fill="white"/>
</svg>
