<?xml version="1.0" encoding="iso-8859-1"?>
<svg version="1.1" id="Layer_1" xmlns="http://www.w3.org/2000/svg" x="47px" y="47px"
     viewBox="0 0 512 512" style="enable-background:new 0 0 512 512;" xml:space="preserve">
<path style="fill:#FD9A0C;" d="M142.633,13.802C108.588,30.199,9.677,154.228,1.268,191.071S28.16,382.573,51.721,412.118
	c23.56,29.545,166.49,98.376,204.279,98.376s180.719-68.831,204.279-98.376c23.561-29.545,58.862-184.207,50.452-221.049
	c-8.409-36.841-107.319-160.872-141.365-177.267S176.68-2.593,142.633,13.802z"/>
    <path style="fill:#FFAD38;" d="M256,29.951c-56.104,0-92.851,5.543-101.024,9.48c-8.175,3.937-35.42,29.21-70.4,73.074
	s-53.557,76.05-55.577,84.895c-2.02,8.845,0.753,45.905,13.238,100.601s26.066,89.289,31.724,96.382
	c5.657,7.093,36.359,28.031,86.907,52.374s86.062,35.292,95.133,35.292s44.586-10.95,95.133-35.292
	c50.547-24.342,81.25-45.28,86.907-52.374c5.657-7.094,19.239-41.686,31.723-96.382c12.485-54.698,15.256-91.757,13.238-100.601
	c-2.018-8.844-20.597-41.032-55.577-84.895s-62.225-69.137-70.4-73.074C348.851,35.494,312.104,29.951,256,29.951z"/>
    <g>
	<path style="fill:#FFC066;" d="M256,362.382c-68.07,0-123.449-55.379-123.449-123.449S187.931,115.485,256,115.485
		s123.449,55.379,123.449,123.449S324.07,362.382,256,362.382z M256,132.551c-58.659,0-106.382,47.723-106.382,106.382
		S197.341,345.316,256,345.316s106.382-47.723,106.382-106.382S314.66,132.551,256,132.551z"/>
        <path style="fill:#FFC066;" d="M370.916,247.467H141.085c-4.714,0-8.533-3.821-8.533-8.533s3.82-8.533,8.533-8.533h229.831
		c4.714,0,8.533,3.821,8.533,8.533S375.63,247.467,370.916,247.467z"/>
</g>
    <g>
	<path style="fill:#FCDE65;" d="M431.449,265.212c-2.945-3.68-8.314-4.278-11.994-1.332l-9.235,7.389
		c1.987-9.48,3.108-19.201,3.312-29.06l18.375-32.272c2.332-4.096,0.902-9.306-3.194-11.638c-4.094-2.332-9.306-0.902-11.638,3.194
		l-5.858,10.29c-1.68-9.637-4.245-19.093-7.672-28.235l5.007-36.836c0.635-4.669-2.636-8.97-7.306-9.605
		c-4.682-0.631-8.97,2.635-9.605,7.306l-1.587,11.676c-5.152-8.317-11.069-16.121-17.642-23.322l-8.905-36.052
		c-1.131-4.575-5.754-7.366-10.331-6.237c-4.575,1.131-7.368,5.756-6.237,10.331l2.843,11.507c-4.435-3.29-9.036-6.366-13.807-9.181
		c-4.058-2.394-9.29-1.047-11.686,3.013c-2.394,4.058-1.046,9.291,3.013,11.686c42.693,25.19,69.216,71.594,69.216,121.101
		c0,0.213-0.009,0.424-0.01,0.637c-0.005,0.109-0.006,0.217-0.006,0.327c-0.248,36.299-14.493,70.665-39.171,96.363
		c-0.033,0.033-0.065,0.067-0.098,0.1c-6.632,6.892-14.005,13.168-22.071,18.678c-3.892,2.659-4.891,7.968-2.232,11.86
		c1.652,2.419,4.329,3.721,7.053,3.721c1.658,0,3.334-0.482,4.806-1.488c8.395-5.736,16.12-12.21,23.134-19.289l35.553-10.728
		c4.511-1.362,7.066-6.122,5.705-10.635c-1.363-4.514-6.125-7.063-10.636-5.705L387.19,326.2
		c5.417-8.142,10.068-16.763,13.884-25.759l29.044-23.236C433.798,274.261,434.394,268.892,431.449,265.212z"/>
        <path style="fill:#FCDE65;" d="M187.712,106.149c-2.395-4.06-7.628-5.408-11.686-3.013c-4.77,2.815-9.371,5.889-13.805,9.178
		l2.842-11.507c1.13-4.575-1.662-9.2-6.237-10.331c-4.575-1.125-9.201,1.662-10.331,6.237l-8.905,36.05
		c-6.573,7.201-12.491,15.005-17.642,23.322l-1.587-11.676c-0.636-4.671-4.941-7.942-9.605-7.306
		c-4.669,0.635-7.941,4.935-7.306,9.605l5.007,36.836c-3.427,9.143-5.992,18.598-7.672,28.235l-5.86-10.29
		c-2.332-4.096-7.545-5.526-11.638-3.194c-4.096,2.332-5.525,7.542-3.194,11.638l18.375,32.271c0.205,9.859,1.326,19.58,3.312,29.06
		l-9.235-7.388c-3.681-2.945-9.05-2.348-11.994,1.332c-2.945,3.68-2.347,9.05,1.332,11.994l29.044,23.235
		c3.816,8.996,8.467,17.618,13.884,25.76l-11.354-3.426c-4.515-1.362-9.273,1.192-10.636,5.705
		c-1.361,4.511,1.194,9.273,5.705,10.635l35.553,10.728c7.014,7.079,14.74,13.553,23.134,19.289
		c1.472,1.006,3.148,1.488,4.806,1.488c2.725,0,5.401-1.302,7.053-3.721c2.659-3.891,1.66-9.201-2.232-11.86
		c-38.153-26.065-61.026-69.052-61.341-115.142c0-0.109-0.001-0.217-0.006-0.328c-0.001-0.213-0.01-0.423-0.01-0.636
		c0-49.507,26.522-95.909,69.214-121.098C188.758,115.44,190.107,110.209,187.712,106.149z"/>
        <path style="fill:#FCDE65;" d="M332.255,405.297c-1.004,0-2.01-0.176-2.972-0.535c-23.43-8.705-48.086-13.119-73.282-13.119
		s-49.852,4.413-73.282,13.119c-2.332,0.867-4.923,0.672-7.099-0.53l-20.594-11.378c-4.126-2.279-5.621-7.471-3.343-11.595
		s7.471-5.622,11.595-3.343l17.205,9.505c24.224-8.525,49.609-12.846,75.515-12.846s51.291,4.32,75.515,12.846l17.206-9.505
		c4.123-2.279,9.316-0.783,11.595,3.343c2.279,4.124,0.783,9.316-3.343,11.595l-20.594,11.378
		C335.103,404.939,333.682,405.297,332.255,405.297z"/>
</g>
    <path style="fill:#FD9A0C;" d="M314.692,179.885c-6.646,8.993-17.311,14.875-29.358,14.875c-12.05,0-22.713-5.881-29.333-14.875
	c-6.673,8.993-17.31,14.875-29.358,14.875c-12.05,0-22.712-5.881-29.333-14.875v47.373L256,238.635l58.691-11.378V179.885z"/>
    <g>
	<path style="fill:#FCDE65;" d="M274.798,80.851h-10.264V70.588c0-4.713-3.819-8.533-8.533-8.533c-4.714,0-8.533,3.821-8.533,8.533
		v10.264h-10.264c-4.714,0-8.533,3.821-8.533,8.533c0,4.713,3.82,8.533,8.533,8.533h10.264v32.547c0,4.713,3.82,8.533,8.533,8.533
		c4.714,0,8.533-3.821,8.533-8.533V97.917h10.264c4.714,0,8.533-3.821,8.533-8.533C283.331,84.671,279.51,80.851,274.798,80.851z"/>
        <path style="fill:#FCDE65;" d="M264.534,227.258v-9.133c0-4.713-3.819-8.533-8.533-8.533c-4.714,0-8.533,3.821-8.533,8.533v9.133
		h-50.158v49.202c0,44.74,39.041,33.913,58.691,47.923c19.651-14.011,58.691-3.185,58.691-47.923v-49.202L264.534,227.258
		L264.534,227.258z"/>
</g>
    <g>
	    <circle style="fill:#FD9A0C;" cx="227.556" cy="270.791" r="8.533"/>
        <circle style="fill:#FD9A0C;" cx="256" cy="285.582" r="8.533"/>
        <circle style="fill:#FD9A0C;" cx="256" cy="256" r="8.533"/>
        <circle style="fill:#FD9A0C;" cx="284.445" cy="270.791" r="8.533"/>
</g>

</svg>
