<svg width="24" height="24" viewBox="0 0 17 17" fill="none" xmlns="http://www.w3.org/2000/svg">
    <path d="M10.0167 8.5L16.8891 1.6279C17.0371 1.47979 17.0371 1.23982 16.8891 1.09171L15.909 0.111034C15.8379 0.0401155 15.7412 0 15.6407 0C15.5401 0 15.4436 0.0401155 15.3725 0.111034L8.50018 6.98331L1.6279 0.111034C1.48552 -0.0313402 1.23355 -0.0311611 1.09153 0.111034L0.111567 1.09171C-0.0365379 1.23982 -0.0365379 1.47979 0.111567 1.6279L6.98385 8.5L0.111567 15.3721C-0.0365379 15.5202 -0.0365379 15.7602 0.111567 15.9083L1.09171 16.889C1.16281 16.9599 1.25933 17 1.35998 17C1.46063 17 1.55698 16.9599 1.62807 16.889L8.50035 10.0167L15.3726 16.889C15.4437 16.9599 15.5404 17 15.6409 17C15.7414 17 15.8381 16.9599 15.9092 16.889L16.8893 15.9083C17.0372 15.7602 17.0372 15.5202 16.8893 15.3721L10.0167 8.5Z"
          fill="#888181"/>
</svg>
