<svg width="16" height="16" viewBox="0 0 16 16" fill="none" xmlns="http://www.w3.org/2000/svg">
<g clip-path="url(#clip0_22_25)">
<path d="M11.4857 15.787L4.21299 8.51406C4.07661 8.37772 4 8.1927 4 7.99983C4 7.80691 4.07665 7.62194 4.21304 7.48555L11.4858 0.213018C11.7698 -0.0710057 12.2303 -0.0710057 12.5143 0.213019C12.7983 0.496994 12.7983 0.957503 12.5143 1.24153L5.75583 7.99983L12.5143 14.7585C12.6563 14.9005 12.7273 15.0866 12.7273 15.2728C12.7273 15.4589 12.6563 15.645 12.5142 15.787C12.2302 16.071 11.7697 16.071 11.4857 15.787Z" fill="#8D8D8D"/>
<path d="M7.48572 15.787L0.212993 8.51406C0.0766056 8.37772 -3.58114e-07 8.1927 -3.49684e-07 7.99983C-3.41251e-07 7.80691 0.0766541 7.62194 0.213042 7.48555L7.48577 0.213018C7.76979 -0.0710057 8.23025 -0.0710057 8.51428 0.213019C8.79825 0.496994 8.7983 0.957503 8.51428 1.24153L1.75583 7.99983L8.51428 14.7585C8.65629 14.9005 8.72727 15.0866 8.72727 15.2728C8.72727 15.4589 8.65629 15.645 8.51423 15.787C8.23021 16.071 7.76975 16.071 7.48572 15.787Z" fill="#8D8D8D"/>
</g>
<defs>
<clipPath id="clip0_22_25">
<rect width="16" height="16" fill="white" transform="matrix(-4.37114e-08 1 1 4.37114e-08 0 0)"/>
</clipPath>
</defs>
</svg>
