<svg width="16" height="16" viewBox="0 0 16 16" fill="none" xmlns="http://www.w3.org/2000/svg">
<g clip-path="url(#clip0_21_23)">
<path d="M7.1222 15.787L-0.150532 8.51406C-0.28692 8.37772 -0.363526 8.1927 -0.363526 7.99983C-0.363526 7.80691 -0.286871 7.62194 -0.150483 7.48555L7.12224 0.213018C7.40627 -0.0710057 7.86673 -0.0710057 8.15075 0.213019C8.43473 0.496994 8.43478 0.957503 8.15075 1.24153L1.3923 7.99983L8.15075 14.7585C8.29276 14.9005 8.36375 15.0866 8.36375 15.2728C8.36375 15.4589 8.29277 15.645 8.1507 15.787C7.86668 16.071 7.40622 16.071 7.1222 15.787Z" fill="black"/>
<path d="M11.1222 15.787L3.84947 8.51406C3.71308 8.37772 3.63647 8.1927 3.63647 7.99983C3.63647 7.80691 3.71313 7.62194 3.84952 7.48555L11.1222 0.213018C11.4063 -0.0710057 11.8667 -0.0710057 12.1508 0.213019C12.4347 0.496994 12.4348 0.957503 12.1508 1.24153L5.3923 7.99983L12.1508 14.7585C12.2928 14.9005 12.3637 15.0866 12.3637 15.2728C12.3637 15.4589 12.2928 15.645 12.1507 15.787C11.8667 16.071 11.4062 16.071 11.1222 15.787Z" fill="black"/>
</g>
<defs>
<clipPath id="clip0_21_23">
<rect width="16" height="16" fill="white" transform="matrix(-4.37114e-08 1 1 4.37114e-08 0 0)"/>
</clipPath>
</defs>
</svg>
