<svg width="30" height="30" viewBox="0 0 30 30" fill="none" xmlns="http://www.w3.org/2000/svg">
<path d="M25.6262 12.4207V10.6522C25.6262 9.21869 25.345 7.82682 24.7902 6.5154C24.2548 5.24975 23.489 4.11362 22.5139 3.13841C21.5387 2.16325 20.4025 1.39739 19.1369 0.862115C17.8254 0.307431 16.4336 0.026123 15 0.026123C13.5665 0.026123 12.1746 0.307431 10.8632 0.862115C9.59752 1.39744 8.46138 2.16325 7.48617 3.13841C6.51101 4.11356 5.7451 5.24975 5.20983 6.5154C4.65515 7.82687 4.37384 9.21869 4.37384 10.6522V12.4207C2.84285 12.5734 1.64331 13.8689 1.64331 15.4394V26.9401C1.64331 28.613 3.0043 29.9739 4.67711 29.9739H25.3229C26.9958 29.9739 28.3567 28.613 28.3567 26.9401V15.4394C28.3568 13.8689 27.1572 12.5734 25.6262 12.4207ZM3.8788 26.9401V15.4394C3.8788 15.1059 4.0834 14.8203 4.37394 14.7008C4.46745 14.6624 4.56978 14.641 4.67722 14.641H5.49171H6.60943H23.3908H24.5086H25.323C25.4304 14.641 25.5328 14.6624 25.6263 14.7008C25.9168 14.8203 26.1214 15.1059 26.1214 15.4394V26.9401C26.1214 27.3811 25.764 27.7385 25.323 27.7385H4.67717C4.23624 27.7385 3.8788 27.381 3.8788 26.9401ZM6.60938 10.6522C6.60938 6.01817 10.366 2.26156 15.0001 2.26156C19.6341 2.26156 23.3908 6.01822 23.3908 10.6522V12.4056H6.60938V10.6522V10.6522Z" fill="black"/>
<path d="M25.3229 30H4.67708C2.98986 30 1.61719 28.6273 1.61719 26.9401V15.4394C1.61719 14.6767 1.90058 13.9456 2.41514 13.3808C2.92088 12.8256 3.60643 12.4769 4.34771 12.3972V10.6522C4.34771 9.21522 4.62965 7.82 5.18579 6.50525C5.72237 5.23652 6.49016 4.09756 7.46772 3.12001C8.44523 2.1425 9.58423 1.37476 10.853 0.838131C12.1678 0.281934 13.563 0 15 0C16.437 0 17.8323 0.281934 19.147 0.838079C20.4158 1.37466 21.5548 2.14239 22.5323 3.11995C23.5098 4.09751 24.2776 5.23647 24.8142 6.5052C25.3703 7.81984 25.6523 9.21511 25.6523 10.6522V12.3972C26.3936 12.4768 27.0792 12.8256 27.5849 13.3808C28.0995 13.9456 28.3828 14.6767 28.3828 15.4394V26.9401C28.3828 28.6273 27.0101 30 25.3229 30ZM15 0.052181C13.57 0.052181 12.1816 0.332758 10.8733 0.886085C9.61074 1.42011 8.47737 2.18409 7.50461 3.15679C6.5318 4.1296 5.76782 5.26297 5.23385 6.52549C4.68052 7.83378 4.39995 9.22216 4.39995 10.6521V12.4443L4.37641 12.4466C3.63899 12.5202 2.95615 12.8643 2.45375 13.4159C1.94796 13.9711 1.66942 14.6897 1.66942 15.4393V26.94C1.66942 28.5985 3.01866 29.9478 4.67713 29.9478H25.3229C26.9814 29.9478 28.3307 28.5985 28.3307 26.94V15.4393C28.3307 14.6897 28.0521 13.9711 27.5464 13.4159C27.044 12.8644 26.3612 12.5202 25.6236 12.4466L25.6001 12.4443V10.6521C25.6001 9.22205 25.3196 7.83362 24.7662 6.52549C24.2322 5.26297 23.4682 4.12955 22.4955 3.15679C21.5227 2.18404 20.3893 1.42005 19.1268 0.886085C17.8184 0.332758 16.43 0.052181 15 0.052181ZM25.323 27.7646H4.67713C4.22253 27.7646 3.85267 27.3947 3.85267 26.9401V15.4394C3.85267 15.1037 4.05336 14.8044 4.364 14.6767C4.46366 14.6357 4.56907 14.615 4.67713 14.615H25.323C25.4311 14.615 25.5364 14.6357 25.6362 14.6767C25.9467 14.8044 26.1474 15.1038 26.1474 15.4394V26.9401C26.1474 27.3947 25.7776 27.7646 25.323 27.7646ZM4.67713 14.6671C4.57585 14.6671 4.47718 14.6866 4.38377 14.725C4.09281 14.8446 3.9048 15.125 3.9048 15.4394V26.9401C3.9048 27.3659 4.25123 27.7124 4.67708 27.7124H25.3229C25.7487 27.7124 26.0952 27.3659 26.0952 26.9401V15.4394C26.0952 15.125 25.9072 14.8446 25.6162 14.725C25.5229 14.6866 25.4241 14.6671 25.3229 14.6671H4.67713ZM23.4168 12.4317H6.58325V10.6522C6.58325 6.01115 10.359 2.23543 15 2.23543C19.6411 2.23543 23.4168 6.01115 23.4168 10.6522V12.4317ZM6.63543 12.3795H23.3647V10.6522C23.3647 6.03995 19.6123 2.28761 15 2.28761C10.3878 2.28761 6.63543 6.03995 6.63543 10.6522V12.3795V12.3795Z" fill="black"/>
<path d="M15.0001 15.7783C13.2084 15.7783 11.7507 17.236 11.7507 19.0278C11.7507 20.4178 12.6282 21.6067 13.8582 22.0699V24.1874V24.6303C13.8582 24.9006 13.9541 25.1485 14.1138 25.3418C14.3188 25.59 14.6289 25.7481 14.9759 25.7481C15.3207 25.7481 15.6291 25.5918 15.8341 25.3463C15.9961 25.1523 16.0936 24.9027 16.0936 24.6303V24.1942V22.0877C17.349 21.6378 18.2496 20.4361 18.2496 19.0278C18.2496 17.236 16.7919 15.7783 15.0001 15.7783ZM15.0001 20.0419C14.4401 20.0419 13.9861 19.5878 13.9861 19.0278C13.9861 18.4677 14.4401 18.0137 15.0001 18.0137C15.5602 18.0137 16.0142 18.4677 16.0142 19.0278C16.0142 19.5878 15.5602 20.0419 15.0001 20.0419Z" fill="black"/>
<path d="M14.9759 25.7742C14.6335 25.7742 14.312 25.6227 14.0937 25.3584C13.925 25.1542 13.8321 24.8956 13.8321 24.6303V22.0879C12.5708 21.6048 11.7246 20.3774 11.7246 19.0278C11.7246 17.2216 13.194 15.7522 15.0001 15.7522C16.8062 15.7522 18.2757 17.2216 18.2757 19.0278C18.2757 20.4006 17.41 21.6353 16.1197 22.106V24.6303C16.1197 24.8977 16.0254 25.1579 15.8542 25.3629C15.6359 25.6243 15.3158 25.7742 14.9759 25.7742ZM15.0001 15.8044C13.2227 15.8044 11.7768 17.2504 11.7768 19.0278C11.7768 20.3618 12.617 21.5746 13.8674 22.0454L13.8843 22.0518V24.6303C13.8843 24.8835 13.9729 25.1302 14.1339 25.3251C14.3422 25.5773 14.6491 25.722 14.9759 25.722C15.3003 25.722 15.6058 25.5789 15.8141 25.3295C15.9775 25.1338 16.0675 24.8854 16.0675 24.6303V22.0693L16.0847 22.0631C17.364 21.6047 18.2234 20.3848 18.2234 19.0278C18.2235 17.2504 16.7775 15.8044 15.0001 15.8044ZM15.0001 20.0679C14.4266 20.0679 13.96 19.6013 13.96 19.0278C13.96 18.4542 14.4266 17.9876 15.0001 17.9876C15.5736 17.9876 16.0402 18.4542 16.0402 19.0278C16.0402 19.6013 15.5736 20.0679 15.0001 20.0679ZM15.0001 18.0398C14.4554 18.0398 14.0122 18.483 14.0122 19.0278C14.0122 19.5726 14.4553 20.0158 15.0001 20.0158C15.5449 20.0158 15.9881 19.5726 15.9881 19.0278C15.9881 18.483 15.5449 18.0398 15.0001 18.0398Z" fill="black"/>
</svg>
