<svg width="16" height="12" viewBox="0 0 16 12" fill="none" xmlns="http://www.w3.org/2000/svg">
<path d="M14.0456 0.568848H1.95437C0.876776 0.568848 0 1.44562 0 2.52321V9.47665C0 10.5542 0.876776 11.431 1.95437 11.431H14.0456C15.1232 11.431 16 10.5542 16 9.47665V2.52343C16.0002 1.44562 15.1234 0.568848 14.0456 0.568848ZM13.0907 1.84385L8 5.12358L2.90934 1.84385H13.0907ZM14.0456 10.1562H1.95437C1.57973 10.1562 1.275 9.85129 1.275 9.47686V2.55955L7.60666 6.63106C7.61516 6.63637 7.6243 6.63998 7.63301 6.64487C7.64215 6.64997 7.6515 6.65486 7.66085 6.65953C7.70994 6.68482 7.76051 6.70522 7.81215 6.71861C7.81746 6.72009 7.82278 6.72073 7.82809 6.72201C7.88483 6.73539 7.9422 6.74368 7.99958 6.74368C7.99979 6.74368 8 6.74368 8 6.74368C8.00042 6.74368 8.00064 6.74368 8.00085 6.74368C8.05823 6.74368 8.1156 6.73561 8.17234 6.72201C8.17765 6.72073 8.18296 6.72009 8.18828 6.71861C8.23991 6.70522 8.29028 6.68482 8.33958 6.65953C8.34893 6.65486 8.35828 6.64997 8.36741 6.64487C8.37613 6.63998 8.38526 6.63637 8.39376 6.63106L14.7254 2.55955V9.47665C14.7252 9.85129 14.4203 10.1562 14.0456 10.1562Z" fill="black"/>
</svg>
