<svg width="671" height="671" viewBox="0 0 671 671" fill="none" xmlns="http://www.w3.org/2000/svg">
<path fill-rule="evenodd" clip-rule="evenodd" d="M248.798 31.8515C296.787 -9.04425 366.533 -10.5589 416.132 27.3075L421.763 31.8515L434.313 42.5455C443.465 50.3449 454.526 55.4994 466.306 57.5158L472.25 58.2602L488.686 59.5715C551.703 64.6002 602.19 113.089 610.286 175.174L610.99 181.876L612.3 198.311C613.257 210.298 617.435 221.764 624.339 231.52L628.017 236.249L638.71 248.798C679.604 296.787 681.118 366.532 643.254 416.131L638.71 421.762L628.017 434.312C620.217 443.464 615.061 454.525 613.044 466.305L612.3 472.249L610.99 488.686C605.959 551.702 557.472 602.192 495.389 610.286L488.686 610.989L472.25 612.302C460.264 613.257 448.798 617.434 439.043 624.338L434.313 628.016L421.763 638.709C373.776 679.606 304.03 681.121 254.43 643.253L248.798 638.709L236.249 628.016C227.097 620.216 216.036 615.061 204.256 613.046L198.311 612.302L181.876 610.989C118.859 605.962 68.3702 557.471 60.2752 495.388L59.5715 488.686L58.2598 472.249C57.3033 460.263 53.1265 448.797 46.2225 439.042L42.5455 434.312L31.8515 421.762C-9.04425 373.775 -10.5589 304.03 27.3075 254.429L31.8515 248.798L42.5455 236.249C50.3449 227.097 55.4992 216.036 57.5155 204.256L58.2598 198.311L59.5715 181.876C64.6002 118.859 113.089 68.3702 175.173 60.2752L181.876 59.5715L198.311 58.2602C210.298 57.3036 221.764 53.1266 231.52 46.2225L236.249 42.5455L248.798 31.8515Z" fill="url(#paint0_linear_608_15)"/>
<path d="M227.841 422.282H181.669L107.138 292.673H106.083C106.396 298.064 106.669 303.493 106.904 308.962C107.138 314.431 107.372 319.9 107.607 325.368C107.841 330.759 108.075 336.189 108.31 341.657V422.282H75.8489V250.954H121.669L196.083 379.275H196.904C196.747 373.962 196.552 368.689 196.318 363.454C196.083 358.22 195.849 352.986 195.615 347.751C195.458 342.517 195.302 337.282 195.146 332.048V250.954H227.841V422.282ZM369.755 422.282H271.083V250.954H369.755V280.72H307.411V318.337H365.419V348.103H307.411V392.282H369.755V422.282ZM616.083 250.954L572.49 422.282H531.122L507.919 332.282C507.45 330.564 506.825 327.947 506.044 324.431C505.263 320.915 504.443 317.087 503.583 312.947C502.724 308.728 501.943 304.782 501.24 301.111C500.615 297.361 500.185 294.392 499.95 292.204C499.716 294.392 499.247 297.322 498.544 300.993C497.919 304.665 497.177 308.572 496.318 312.712C495.536 316.853 494.755 320.72 493.974 324.314C493.193 327.907 492.568 330.642 492.099 332.517L469.013 422.282H427.763L384.052 250.954H419.794L441.708 344.47C442.333 347.282 443.036 350.642 443.818 354.548C444.677 358.454 445.497 362.556 446.279 366.853C447.138 371.072 447.88 375.173 448.505 379.157C449.208 383.064 449.716 386.462 450.029 389.353C450.419 386.384 450.927 382.947 451.552 379.04C452.177 375.056 452.841 371.032 453.544 366.97C454.325 362.829 455.107 359.001 455.888 355.486C456.669 351.97 457.372 349.118 457.997 346.931L482.958 250.954H517.294L542.255 346.931C542.802 349.04 543.427 351.892 544.13 355.486C544.911 359.001 545.693 362.829 546.474 366.97C547.255 371.111 547.958 375.173 548.583 379.157C549.286 383.064 549.794 386.462 550.107 389.353C550.654 385.447 551.396 380.72 552.333 375.173C553.349 369.548 554.404 363.962 555.497 358.415C556.669 352.868 557.685 348.22 558.544 344.47L580.341 250.954H616.083Z" fill="white"/>
<defs>
<linearGradient id="paint0_linear_608_15" x1="721.783" y1="-112.054" x2="-193.368" y2="169.054" gradientUnits="userSpaceOnUse">
<stop offset="0.162332" stop-color="#00DBDE"/>
<stop offset="0.769611" stop-color="#FC00FF"/>
</linearGradient>
</defs>
</svg>
