<svg width="207" height="207" viewBox="0 0 207 207" fill="none" xmlns="http://www.w3.org/2000/svg">
<g clip-path="url(#clip0_15_518)">
<path d="M33.625 99.187H37.344V121.687H33.625V99.187ZM164.04 118.76H160.286V141.26H164.04V118.76ZM206.848 94.604V166.532C206.848 169.294 204.61 171.532 201.848 171.532H136.232H70.616H5C2.238 171.532 0 169.294 0 166.532V74.157C0 71.395 2.238 69.157 5 69.157H65.616V40.316C65.616 37.554 67.854 35.316 70.616 35.316H136.231C138.993 35.316 141.231 37.554 141.231 40.316V89.603H201.847C204.609 89.604 206.848 91.842 206.848 94.604ZM47.344 121.687V99.187H51.418C54.18 99.187 56.418 96.949 56.418 94.187C56.418 91.425 54.18 89.187 51.418 89.187H19.551C16.789 89.187 14.551 91.425 14.551 94.187C14.551 96.949 16.789 99.187 19.551 99.187H23.625V121.687H19.551C16.789 121.687 14.551 123.925 14.551 126.687C14.551 129.449 16.789 131.687 19.551 131.687H51.418C54.18 131.687 56.418 129.449 56.418 126.687C56.418 123.925 54.18 121.687 51.418 121.687H47.344V121.687ZM108.424 88.24V65.74H111.079C113.841 65.74 116.079 63.502 116.079 60.74C116.079 57.978 113.841 55.74 111.079 55.74H95.77C93.008 55.74 90.77 57.978 90.77 60.74C90.77 63.502 93.008 65.74 95.77 65.74H98.424V88.24H95.77C93.008 88.24 90.77 90.478 90.77 93.24C90.77 96.002 93.008 98.24 95.77 98.24H111.08C113.842 98.24 116.08 96.002 116.08 93.24C116.08 90.478 113.842 88.24 111.08 88.24H108.424ZM187.793 141.26V118.76H188.758C191.52 118.76 193.758 116.522 193.758 113.76C193.758 110.998 191.52 108.76 188.758 108.76H149.321C146.559 108.76 144.321 110.998 144.321 113.76C144.321 116.522 146.559 118.76 149.321 118.76H150.286V141.26H149.321C146.559 141.26 144.321 143.498 144.321 146.26C144.321 149.022 146.559 151.26 149.321 151.26H188.758C191.52 151.26 193.758 149.022 193.758 146.26C193.758 143.498 191.52 141.26 188.758 141.26H187.793ZM174.04 141.26H177.793V118.76H174.04V141.26V141.26Z" fill="white"/>
</g>
<defs>
<clipPath id="clip0_15_518">
<rect width="206.848" height="206.848" fill="white"/>
</clipPath>
</defs>
</svg>
