<svg width="50px" height="50px" viewBox="0 0 468 500" fill="none" xmlns="http://www.w3.org/2000/svg">
<path fill-rule="evenodd" clip-rule="evenodd" d="M146.977 156.64C164.653 156.62 181.599 149.59 194.098 137.091C206.597 124.592 213.627 107.646 213.647 89.97V66.67C213.647 48.988 206.623 32.0302 194.12 19.5272C181.617 7.02414 164.659 0 146.977 0C129.295 0 112.337 7.02414 99.8342 19.5272C87.3311 32.0302 80.307 48.988 80.307 66.67V89.97C80.3271 107.646 87.3577 124.592 99.8564 137.091C112.355 149.589 129.301 156.62 146.977 156.64ZM94.31 66.67C94.31 52.7011 99.8592 39.3042 109.737 29.4267C119.614 19.5491 133.011 14 146.98 14C160.949 14 174.346 19.5491 184.223 29.4267C194.101 39.3042 199.65 52.7011 199.65 66.67V89.97C199.65 103.939 194.101 117.336 184.223 127.213C174.346 137.091 160.949 142.64 146.98 142.64C133.011 142.64 119.614 137.091 109.737 127.213C99.8592 117.336 94.31 103.939 94.31 89.97V66.67ZM462.525 350.463L438.725 344.485C437.537 334.046 434.928 323.818 430.97 314.085L449.17 297.917C450.477 296.756 451.302 295.149 451.484 293.41C451.665 291.672 451.19 289.929 450.151 288.523L426.692 256.777C425.659 255.379 424.142 254.415 422.437 254.073C420.732 253.732 418.961 254.037 417.469 254.93L396.569 267.43C388.402 260.739 379.345 255.217 369.657 251.021L371 226.633C371.096 224.894 370.54 223.183 369.442 221.832C368.343 220.481 366.781 219.588 365.059 219.327L327.253 213.602C325.535 213.342 323.781 213.73 322.333 214.691C320.885 215.652 319.846 217.117 319.419 218.802L313.419 242.496C306.83 243.212 300.316 244.498 293.949 246.338V242.498C293.894 224.085 286.539 206.446 273.496 193.449C260.453 180.453 242.788 173.16 224.375 173.17H207.21C205.837 173.17 204.495 173.574 203.35 174.33C202.205 175.087 201.308 176.164 200.77 177.427L164.357 262.919L161.465 226.49H161.556C163.015 226.49 164.438 226.034 165.625 225.186C166.812 224.337 167.705 223.139 168.178 221.759L180.11 186.919C180.47 185.867 180.575 184.744 180.415 183.643C180.255 182.543 179.835 181.496 179.19 180.59C178.544 179.684 177.693 178.945 176.705 178.434C175.717 177.923 174.622 177.654 173.51 177.651L123.779 177.475C122.665 177.478 121.567 177.743 120.575 178.25C119.583 178.756 118.724 179.49 118.069 180.391C117.418 181.297 116.994 182.345 116.83 183.448C116.667 184.551 116.769 185.677 117.129 186.733L129.064 221.751C129.535 223.134 130.428 224.335 131.616 225.185C132.804 226.036 134.229 226.493 135.69 226.493H137.21L134.326 262.817L97.182 177.383C96.6382 176.132 95.741 175.068 94.6004 174.32C93.4599 173.572 92.1258 173.174 90.762 173.174H69.578C51.1638 173.162 33.4968 180.455 20.4529 193.453C7.40902 206.451 0.0534906 224.092 0 242.506V393.415C0 395.271 0.737498 397.052 2.05025 398.365C3.36301 399.677 5.14348 400.415 7 400.415H123.4L122.959 405.97C122.86 407.221 123.099 408.477 123.651 409.604C124.204 410.732 125.049 411.69 126.099 412.378L145.74 425.259C146.892 426.014 148.242 426.413 149.619 426.405C150.997 426.397 152.342 425.983 153.485 425.214L172.638 412.333C173.668 411.64 174.496 410.686 175.036 409.567C175.576 408.449 175.808 407.208 175.71 405.97L175.269 400.415H217.191L200.38 415.351C199.073 416.512 198.248 418.119 198.066 419.858C197.885 421.596 198.36 423.339 199.399 424.745L222.858 456.491C223.891 457.89 225.408 458.853 227.113 459.195C228.819 459.536 230.59 459.231 232.082 458.338L253.023 445.812C261.191 452.484 270.229 458.012 279.888 462.246L278.545 486.637C278.449 488.375 279.005 490.087 280.103 491.438C281.202 492.789 282.764 493.682 284.486 493.943L322.292 499.668C324.011 499.93 325.765 499.543 327.214 498.582C328.662 497.62 329.701 496.154 330.126 494.468L336.126 470.768C346.619 469.587 356.902 466.983 366.692 463.028L382.947 481.182C384.107 482.477 385.707 483.294 387.436 483.475C389.165 483.655 390.899 483.186 392.301 482.158L424.172 458.791C425.581 457.758 426.553 456.235 426.897 454.521C427.24 452.808 426.93 451.028 426.028 449.531L413.505 428.76C420.208 420.639 425.744 411.622 429.955 401.97L454.476 403.31C456.213 403.404 457.922 402.849 459.271 401.752C460.621 400.655 461.514 399.095 461.776 397.376L467.739 358.309C468.002 356.587 467.614 354.829 466.649 353.378C465.685 351.927 464.215 350.887 462.525 350.463ZM133.552 191.511L163.705 191.617L156.554 212.493H140.703L133.552 191.511ZM14 386.414V242.506C14.0485 227.803 19.9272 213.719 30.3466 203.345C40.7659 192.971 54.8749 187.154 69.578 187.17H86.178L131.978 292.506L124.522 386.406L14 386.414ZM149.53 411.001L137.245 402.943L149.337 250.643L161.431 402.996L149.53 411.001ZM166.746 293.039L211.835 187.17H224.376C239.079 187.154 253.187 192.971 263.606 203.344C274.026 213.717 279.905 227.799 279.954 242.502V247.002L266.602 232.09C265.442 230.795 263.842 229.977 262.113 229.797C260.384 229.617 258.65 230.086 257.248 231.114L225.377 254.481C223.968 255.514 222.996 257.037 222.653 258.75C222.309 260.464 222.619 262.243 223.521 263.74L236.073 284.559C229.389 292.68 223.845 301.677 219.594 311.298L195.071 309.958C193.336 309.868 191.628 310.425 190.28 311.521C188.932 312.617 188.038 314.175 187.771 315.892L181.81 354.962C181.547 356.684 181.936 358.442 182.9 359.893C183.865 361.344 185.335 362.383 187.025 362.807L210.825 368.784C211.484 374.741 212.614 380.636 214.204 386.414H174.157L166.746 293.039ZM448.896 388.983L425.747 387.718C424.266 387.634 422.797 388.024 421.552 388.832C420.308 389.639 419.353 390.822 418.826 392.209C414.443 403.666 407.96 414.204 399.71 423.282C398.691 424.396 398.059 425.811 397.909 427.314C397.76 428.816 398.1 430.327 398.88 431.621L410.732 451.278L389.14 467.109L373.784 449.958C372.794 448.853 371.479 448.091 370.028 447.781C368.577 447.472 367.065 447.632 365.711 448.238C354.487 453.35 342.433 456.396 330.128 457.231C328.647 457.323 327.234 457.882 326.091 458.83C324.949 459.777 324.138 461.062 323.774 462.501L318.11 484.87L292.872 481.048L294.14 458.026C294.222 456.542 293.829 455.07 293.019 453.825C292.208 452.579 291.023 451.623 289.633 451.096C278.138 446.659 267.539 440.183 258.346 431.979C257.232 430.999 255.836 430.397 254.359 430.262C252.881 430.127 251.399 430.464 250.126 431.226L230.343 443.06L214.461 421.57L231.645 406.305C232.774 405.302 233.548 403.961 233.852 402.482C234.156 401.003 233.974 399.466 233.333 398.099C228.167 386.986 225.122 375.007 224.354 362.776C224.261 361.294 223.7 359.879 222.751 358.737C221.801 357.595 220.513 356.785 219.073 356.423L196.61 350.782L200.653 324.289L223.801 325.554C225.282 325.638 226.751 325.249 227.996 324.441C229.24 323.634 230.195 322.451 230.721 321.064C235.183 309.606 241.684 299.051 249.91 289.912C250.901 288.796 251.509 287.393 251.645 285.907C251.782 284.421 251.44 282.93 250.67 281.652L238.81 261.995L260.41 246.163L275.766 263.314C276.768 264.433 278.103 265.2 279.574 265.502C281.044 265.804 282.574 265.625 283.935 264.991C295.109 259.838 307.141 256.804 319.422 256.042C320.903 255.95 322.316 255.39 323.459 254.443C324.601 253.496 325.412 252.21 325.776 250.772L331.438 228.399L356.676 232.22L355.41 255.243C355.328 256.726 355.72 258.196 356.529 259.441C357.338 260.686 358.522 261.642 359.91 262.17C371.403 266.53 381.986 272.989 391.119 281.217C392.231 282.226 393.638 282.851 395.133 283C396.628 283.148 398.13 282.811 399.419 282.04L419.202 270.206L435.086 291.7L417.904 306.97C416.789 307.961 416.019 309.282 415.707 310.741C415.396 312.2 415.558 313.72 416.171 315.08C421.298 326.242 424.355 338.243 425.194 350.498C425.287 351.98 425.848 353.395 426.797 354.537C427.747 355.679 429.035 356.489 430.475 356.851L452.939 362.493L448.896 388.983ZM239.435 343.704C246.635 296.53 291.009 263.983 338.357 271.154H338.353C349.611 272.836 360.426 276.722 370.181 282.588C379.936 288.454 388.438 296.186 395.201 305.342C401.965 314.497 406.857 324.896 409.597 335.944C412.338 346.992 412.873 358.472 411.173 369.727C404.643 412.513 367.528 443.267 325.355 443.267C320.97 443.266 316.591 442.935 312.255 442.277C300.997 440.595 290.182 436.709 280.427 430.843C270.672 424.977 262.17 417.244 255.407 408.089C248.643 398.934 243.751 388.535 241.011 377.487C238.27 366.439 237.735 354.959 239.435 343.704ZM378.974 405.675C388.715 395.077 395.105 381.835 397.338 367.615C398.796 358.219 398.374 348.626 396.097 339.394C393.82 330.162 389.733 321.474 384.073 313.833C375.53 302.247 363.751 293.448 350.218 288.542C336.685 283.636 322.004 282.842 308.021 286.261C294.038 289.68 281.379 297.159 271.637 307.756C261.896 318.353 255.506 331.596 253.273 345.816C251.815 355.212 252.237 364.805 254.514 374.037C256.791 383.269 260.878 391.957 266.538 399.598C275.081 411.183 286.86 419.983 300.393 424.889C313.926 429.795 328.607 430.589 342.59 427.17C356.573 423.751 369.232 416.272 378.974 405.675Z" fill="url(#paint0_linear_183_10)"/>
<defs>
<linearGradient id="paint0_linear_183_10" x1="17" y1="439.5" x2="396.227" y2="367.747" gradientUnits="userSpaceOnUse">
<stop stop-color="#00DBDE"/>
<stop offset="1" stop-color="#FC00FF"/>
</linearGradient>
</defs>
</svg>
