<svg width="25" height="25" viewBox="0 0 25 25" fill="none" xmlns="http://www.w3.org/2000/svg">
<path d="M24.9669 9.47365C24.8808 9.21999 24.6426 9.04904 24.3747 9.04904H15.764L13.097 0.417565C12.9356 -0.107287 12.0639 -0.107287 11.903 0.417565L9.236 9.04904H0.625279C0.357018 9.04904 0.119177 9.21955 0.0330928 9.47365C-0.052991 9.72775 0.0327022 10.0085 0.245592 10.1707L7.23855 15.5109L4.56448 24.167C4.48382 24.4269 4.58069 24.7089 4.80359 24.864C5.02693 25.0179 5.32424 25.0129 5.54094 24.8482L12.5002 19.5308L19.4591 24.8482C19.5714 24.9334 19.7053 24.9763 19.8388 24.9763C19.964 24.9763 20.0891 24.9384 20.1968 24.864C20.4193 24.7088 20.5166 24.4268 20.4359 24.1669L17.7619 15.5109L24.7544 10.1706C24.9673 10.0085 25.053 9.72775 24.9669 9.47365ZM16.6565 14.7819C16.4485 14.9408 16.362 15.2128 16.4394 15.4631L18.6647 22.6677L12.8798 18.2478C12.7675 18.1626 12.6337 18.1197 12.5002 18.1197C12.3663 18.1197 12.2327 18.1626 12.12 18.2482L6.33518 22.6682L8.56052 15.4635C8.6383 15.2132 8.55139 14.9412 8.34343 14.7823L2.47332 10.2988H9.69709C9.97116 10.2988 10.2132 10.1204 10.2939 9.85798L12.5001 2.71824L14.7067 9.85759C14.787 10.12 15.0294 10.2984 15.3035 10.2984H22.5264L16.6565 14.7819Z" fill="#FFA500"/>
<path d="M16.6565 14.7819C16.4485 14.9408 16.362 15.2128 16.4394 15.4631L18.6647 22.6677L12.8798 18.2478C12.7675 18.1626 12.6337 18.1197 12.5002 18.1197C12.3663 18.1197 12.2327 18.1626 12.12 18.2482L6.33518 22.6682L8.56052 15.4635C8.6383 15.2132 8.55139 14.9412 8.34343 14.7823L2.47332 10.2988H9.69709C9.97116 10.2988 10.2132 10.1204 10.2939 9.85798L12.5001 2.71824L14.7067 9.85759C14.787 10.12 15.0294 10.2984 15.3035 10.2984H22.5264L16.6565 14.7819Z" fill="#FFA500"/>
</svg>
