<svg width="100" height="100" viewBox="0 0 104 123" fill="none" xmlns="http://www.w3.org/2000/svg">
<path fill-rule="evenodd" clip-rule="evenodd" d="M72.2091 54.4205H100.979C101.549 54.4231 102.094 54.6505 102.496 55.0531C102.899 55.4558 103.126 56.0011 103.129 56.5705V122.9H1.22911V101.76C1.22911 100.67 1.66911 100.1 2.65911 100.09H34.7291V79.5805C34.7224 79.2927 34.7734 79.0064 34.879 78.7385C34.9845 78.4707 35.1426 78.2266 35.3438 78.0207C35.545 77.8148 35.7854 77.6512 36.0508 77.5396C36.3162 77.4279 36.6012 77.3704 36.8891 77.3705H48.3791C48.3091 74.9305 48.2791 72.1405 48.0091 70.0505C47.9287 69.2855 47.7048 68.5425 47.3491 67.8605L47.2491 67.6805C46.8391 66.9105 46.4591 66.2005 45.9391 66.0005C44.4733 65.4741 42.9813 65.0235 41.4691 64.6505C39.3691 64.1105 37.0191 63.5805 34.9591 63.1405C32.4891 73.8305 28.6391 87.7305 24.2891 97.6805C24.2394 97.7902 24.1593 97.8834 24.0583 97.9489C23.9573 98.0145 23.8396 98.0498 23.7191 98.0505L14.2491 98.7305C14.0826 98.7388 13.9194 98.6818 13.7943 98.5716C13.6691 98.4614 13.5919 98.3067 13.5791 98.1405C13.5695 98.0608 13.5695 97.9802 13.5791 97.9005V97.9005C17.7791 85.2605 21.5291 71.7105 24.5291 58.7205C23.4822 57.6388 22.5904 56.4172 21.8791 55.0905C21.0364 53.5675 20.687 51.8205 20.8791 50.0905L22.9791 33.8605H22.7891C21.7199 33.8007 20.6522 34.0033 19.6791 34.4505C18.2019 35.4048 16.9414 36.6585 15.9791 38.1305C15.4991 38.7505 14.9791 39.4005 14.4091 40.1305C13.9791 40.6405 13.5291 41.1305 13.0991 41.6605L7.73911 47.8105C7.68555 47.8726 7.62019 47.9235 7.54681 47.9602C7.47343 47.9969 7.3935 48.0187 7.31164 48.0243C7.22979 48.0299 7.14764 48.0191 7.06996 47.9927C6.99228 47.9663 6.92061 47.9248 6.85911 47.8705L0.179112 41.7205C0.0642789 41.6028 0 41.4449 0 41.2805C0 41.1161 0.0642789 40.9582 0.179112 40.8405L5.47911 34.6905L6.71911 33.2505L6.77911 33.1805C9.16911 30.1805 11.1191 27.8005 13.7091 26.1005C16.2991 24.4005 19.5491 23.4105 24.4391 23.3005C26.1891 23.2105 28.2491 23.3005 29.9591 23.3005C30.7491 23.3005 31.4591 23.3005 32.0591 23.3005C40.3191 23.3005 44.4591 27.3805 47.6691 30.5405C48.7752 31.8101 50.1036 32.8674 51.5891 33.6605C52.1891 33.9005 53.0791 33.4505 54.0891 32.9405C54.7349 32.6046 55.4032 32.314 56.0891 32.0705L56.9691 31.6705L57.4691 31.4405L64.7091 28.0205C65.2359 27.8339 65.7963 27.7614 66.3532 27.808C66.9101 27.8545 67.4507 28.019 67.9391 28.2905C68.7546 28.6851 69.4566 29.2804 69.9791 30.0205C70.5431 30.8014 70.8695 31.7285 70.9191 32.6905C70.9305 33.5935 70.7592 34.4896 70.4155 35.3248C70.0718 36.1599 69.5628 36.917 68.9191 37.5505C68.8588 37.6264 68.7794 37.6851 68.6891 37.7205L61.3891 41.1805L60.7091 41.4805C56.7891 43.1605 53.9491 44.3805 48.7791 43.4805C48.7432 43.4908 48.7051 43.4908 48.6691 43.4805C45.8034 42.5552 43.2102 40.9375 41.1191 38.7705L40.8391 38.5205L39.4991 51.6305C41.5025 52.668 43.57 53.5765 45.6891 54.3505C51.6891 56.6905 56.6291 58.6105 58.2591 67.7005C58.6146 70.911 58.7649 74.1409 58.7091 77.3705H69.4091V57.5905C69.3591 56.5905 70.0491 54.4205 72.2091 54.4205ZM31.2491 0.78049C32.7507 0.14575 34.3858 -0.107979 36.0091 0.0418788C37.6324 0.191736 39.1934 0.740533 40.5534 1.63944C41.9134 2.53834 43.03 3.75948 43.804 5.1942C44.5781 6.62891 44.9854 8.23271 44.9899 9.86289C44.9944 11.4931 44.5958 13.0991 43.8297 14.538C43.0635 15.977 41.9536 17.2042 40.5986 18.1105C39.2435 19.0169 37.6855 19.5742 36.0631 19.733C34.4406 19.8917 32.8041 19.647 31.2991 19.0205C29.5003 18.2717 27.9627 17.0082 26.8794 15.3886C25.7961 13.7691 25.2153 11.8656 25.21 9.91711C25.2046 7.96865 25.775 6.06202 26.8494 4.43654C27.9238 2.81106 29.4544 1.53916 31.2491 0.78049V0.78049Z" fill="url(#paint0_linear_688_3)"/>
<defs>
<linearGradient id="paint0_linear_688_3" x1="111.007" y1="-20.5373" x2="-33.4234" y2="16.6906" gradientUnits="userSpaceOnUse">
<stop stop-color="#00DBDE"/>
<stop offset="0.759546" stop-color="#FC00FF"/>
</linearGradient>
</defs>
</svg>
