<svg width="62" height="30" viewBox="0 0 62 30" fill="none" xmlns="http://www.w3.org/2000/svg">
<path d="M61.4142 16.4142C62.1953 15.6332 62.1953 14.3668 61.4142 13.5858L48.6863 0.85786C47.9052 0.0768116 46.6389 0.0768117 45.8579 0.85786C45.0768 1.63891 45.0768 2.90524 45.8579 3.68629L57.1716 15L45.8579 26.3137C45.0768 27.0948 45.0768 28.3611 45.8579 29.1421C46.6389 29.9232 47.9052 29.9232 48.6863 29.1421L61.4142 16.4142ZM1.74846e-07 17L60 17L60 13L-1.74846e-07 13L1.74846e-07 17Z" fill="url(#paint0_linear_836_4)"/>
<defs>
<linearGradient id="paint0_linear_836_4" x1="-1.74824e-07" y1="17.0002" x2="60" y2="17.0002" gradientUnits="userSpaceOnUse">
<stop stop-color="#FC00FF"/>
<stop offset="1" stop-color="#00DBDE"/>
</linearGradient>
</defs>
</svg>
