<svg width="24" height="24" viewBox="0 0 24 24" fill="none" xmlns="http://www.w3.org/2000/svg">
<g clip-path="url(#clip0_3_85)">
<path d="M20.2594 23.8286H3.74057C2.7955 23.8266 1.8897 23.4503 1.22143 22.782C0.553162 22.1137 0.17685 21.2079 0.174857 20.2629V5.86973C0.176672 4.92401 0.553397 4.01759 1.22245 3.34918C1.8915 2.68078 2.79828 2.30492 3.744 2.30402H20.2629C21.2086 2.30583 22.115 2.68256 22.7834 3.35161C23.4518 4.02066 23.8277 4.92744 23.8286 5.87316V20.2594C23.8275 21.2057 23.4511 22.1129 22.782 22.782C22.1129 23.4511 21.2057 23.8275 20.2594 23.8286ZM3.74057 4.01487C3.2488 4.01542 2.77733 4.21101 2.42959 4.55875C2.08186 4.90649 1.88626 5.37796 1.88571 5.86973V20.2594C1.88735 20.7506 2.0834 21.2211 2.431 21.568C2.7786 21.915 3.24945 22.1102 3.74057 22.1109H20.2594C20.75 22.1094 21.2201 21.9139 21.567 21.567C21.9139 21.2201 22.1094 20.75 22.1109 20.2594V5.86973C22.1096 5.37909 21.9141 4.90891 21.5672 4.56197C21.2203 4.21504 20.7501 4.01957 20.2594 4.0183L3.74057 4.01487Z" fill="#494949"/>
<path d="M22.9714 11.8841H1.05669C0.829357 11.8841 0.61134 11.7938 0.450594 11.633C0.289849 11.4723 0.199543 11.2543 0.199543 11.0269C0.199543 10.7996 0.289849 10.5816 0.450594 10.4209C0.61134 10.2601 0.829357 10.1698 1.05669 10.1698H22.9714C23.1988 10.1698 23.4168 10.2601 23.5775 10.4209C23.7383 10.5816 23.8286 10.7996 23.8286 11.0269C23.8286 11.2543 23.7383 11.4723 23.5775 11.633C23.4168 11.7938 23.1988 11.8841 22.9714 11.8841Z" fill="#494949"/>
<path d="M6.48617 6.27773C6.37358 6.27782 6.26208 6.25572 6.15805 6.21267C6.05402 6.16963 5.95949 6.1065 5.87988 6.02688C5.80027 5.94727 5.73713 5.85275 5.69409 5.74871C5.65105 5.64468 5.62894 5.53318 5.62903 5.42059V1.02859C5.62903 0.801262 5.71933 0.583245 5.88008 0.422499C6.04083 0.261754 6.25884 0.171448 6.48617 0.171448C6.7135 0.171448 6.93152 0.261754 7.09226 0.422499C7.25301 0.583245 7.34331 0.801262 7.34331 1.02859V5.42059C7.34331 5.64792 7.25301 5.86594 7.09226 6.02668C6.93152 6.18743 6.7135 6.27773 6.48617 6.27773Z" fill="#494949"/>
<path d="M17.5145 6.27773C17.4019 6.27782 17.2904 6.25572 17.1864 6.21267C17.0824 6.16963 16.9878 6.1065 16.9082 6.02688C16.8286 5.94727 16.7655 5.85275 16.7224 5.74871C16.6794 5.64468 16.6573 5.53318 16.6574 5.42059V1.02859C16.6574 0.801262 16.7477 0.583245 16.9084 0.422499C17.0692 0.261754 17.2872 0.171448 17.5145 0.171448C17.7418 0.171448 17.9599 0.261754 18.1206 0.422499C18.2814 0.583245 18.3717 0.801262 18.3717 1.02859V5.42059C18.3717 5.64792 18.2814 5.86594 18.1206 6.02668C17.9599 6.18743 17.7418 6.27773 17.5145 6.27773Z" fill="#494949"/>
</g>
<defs>
<clipPath id="clip0_3_85">
<rect width="24" height="24" fill="white"/>
</clipPath>
</defs>
</svg>
