<svg width="25" height="30" viewBox="0 0 25 30" fill="none" xmlns="http://www.w3.org/2000/svg">
<path d="M24.375 3.5625C24.375 1.59375 22.7812 0 20.8125 0H3.5625C1.59375 0 0 1.59375 0 3.5625V26.4375C0 28.4062 1.59375 30 3.5625 30H20.8125C22.7812 30 24.375 28.4062 24.375 26.4375V3.5625Z" fill="#646464"/>
<path d="M5.9 16.3371H17.7C18 16.3371 18.3 16.2353 18.5 15.9299C18.7 15.7262 18.8 15.4208 18.7 15.1154C18.3 12.6719 16.8 10.7376 14.8 9.82127C15.4 9.1086 15.8 8.19231 15.8 7.0724C15.8 4.83258 14 3 11.8 3C9.6 3 7.8 4.83258 7.8 7.0724C7.8 8.0905 8.2 9.00679 8.8 9.82127C6.8 10.8394 5.2 12.7738 4.9 15.1154C4.9 15.4208 4.9 15.7262 5.1 15.9299C5.3 16.2353 5.6 16.3371 5.9 16.3371ZM9.8 7.17421C9.8 6.0543 10.7 5.13801 11.8 5.13801C12.9 5.13801 13.8 6.0543 13.8 7.17421C13.8 8.29412 12.9 9.21041 11.8 9.21041C10.7 9.21041 9.8 8.29412 9.8 7.17421ZM11.8 11.2466C13.8 11.2466 15.6 12.4683 16.4 14.3009H7.2C8 12.4683 9.8 11.2466 11.8 11.2466ZM20 19.3914H4C3.4 19.3914 3 19.7986 3 20.4095C3 21.0204 3.4 21.4276 4 21.4276H20C20.6 21.4276 21 21.0204 21 20.4095C21 19.7986 20.6 19.3914 20 19.3914ZM20 23.4638H4C3.4 23.4638 3 23.871 3 24.4819C3 25.0928 3.4 25.5 4 25.5H20C20.6 25.5 21 25.0928 21 24.4819C21 23.871 20.6 23.4638 20 23.4638Z" fill="white"/>
</svg>
