<svg width="24" height="24" viewBox="0 0 24 24" fill="none" xmlns="http://www.w3.org/2000/svg">
<g clip-path="url(#clip0_5_105)">
<path d="M12 24C5.37257 24 0 18.6274 0 12C0 5.37257 5.37257 0 12 0C18.6274 0 24 5.37257 24 12C24 18.6274 18.6274 24 12 24ZM12 22.2857C17.6803 22.2857 22.2857 17.6803 22.2857 12C22.2857 6.31971 17.6803 1.71429 12 1.71429C6.31971 1.71429 1.71429 6.31971 1.71429 12C1.71429 17.6803 6.31971 22.2857 12 22.2857ZM14.76 10.8129V11.0066C15.0403 10.6354 15.348 10.3629 15.6823 10.1889C16.0166 10.0149 16.3997 9.92829 16.8334 9.92829C17.2551 9.92829 17.6323 10.02 17.9649 10.2034C18.2966 10.3869 18.5443 10.6474 18.7089 10.9834C18.8143 11.178 18.8829 11.3889 18.9137 11.616C18.9446 11.8423 18.9609 12.1311 18.9609 12.4826V15.4594C18.9609 15.78 18.8871 16.0217 18.7406 16.1863C18.6694 16.2668 18.5813 16.3305 18.4826 16.3731C18.3839 16.4156 18.2771 16.4358 18.1697 16.4323C18.0604 16.436 17.9515 16.4153 17.8512 16.3717C17.7508 16.3281 17.6614 16.2627 17.5894 16.1803C17.4411 16.0123 17.3666 15.7723 17.3666 15.4603V12.7937C17.3666 12.2666 17.2937 11.8629 17.1471 11.5834C17.0006 11.304 16.7083 11.1643 16.2711 11.1643C15.9857 11.1643 15.726 11.25 15.4911 11.4197C15.2571 11.5894 15.0857 11.8226 14.9769 12.12C14.898 12.3583 14.8594 12.8031 14.8594 13.4554V15.4594C14.8594 15.7834 14.784 16.0269 14.6331 16.1889C14.5591 16.2689 14.4688 16.332 14.3682 16.374C14.2677 16.416 14.1592 16.4359 14.0503 16.4323C13.9428 16.4351 13.836 16.4139 13.7377 16.3704C13.6394 16.3268 13.5521 16.2618 13.482 16.1803C13.3337 16.0123 13.2591 15.7723 13.2591 15.4603V10.8369C13.2591 10.5317 13.326 10.3046 13.4589 10.1537C13.5917 10.0037 13.7734 9.92829 14.0031 9.92829C14.1446 9.92829 14.2714 9.96171 14.3846 10.0277C14.5024 10.099 14.5971 10.2029 14.6571 10.3269C14.7257 10.4597 14.76 10.6217 14.76 10.8129ZM11.7403 9.03771H7.82057V11.1463H11.43C11.6957 11.1463 11.8937 11.2063 12.0249 11.3263C12.0898 11.3859 12.141 11.459 12.1749 11.5404C12.2088 11.6218 12.2246 11.7096 12.2211 11.7977C12.2243 11.8864 12.2086 11.9748 12.1752 12.0571C12.1419 12.1394 12.0915 12.2137 12.0274 12.2751C11.8989 12.3977 11.6991 12.4594 11.43 12.4594H7.82057V14.9023H11.8749C12.1491 14.9023 12.3549 14.9666 12.4937 15.0934C12.5628 15.1579 12.6172 15.2365 12.653 15.324C12.6888 15.4114 12.7052 15.5056 12.7011 15.6C12.7011 15.8031 12.6326 15.9686 12.4937 16.0954C12.3549 16.2223 12.1491 16.2857 11.8749 16.2857H7.14686C6.768 16.2857 6.49543 16.2017 6.32914 16.0337C6.16371 15.8657 6.08057 15.594 6.08057 15.2194V8.76257C6.08057 8.51229 6.11743 8.30829 6.192 8.14971C6.26186 7.9959 6.38567 7.87301 6.54 7.80429C6.69857 7.73229 6.9 7.69629 7.14686 7.69629H11.7411C12.018 7.69629 12.2237 7.75714 12.3583 7.88057C12.425 7.94166 12.4777 8.01654 12.5126 8.10002C12.5476 8.1835 12.5639 8.27357 12.5606 8.364C12.5642 8.45522 12.548 8.54615 12.5131 8.6305C12.4782 8.71486 12.4253 8.79062 12.3583 8.85257C12.2237 8.976 12.018 9.03771 11.7411 9.03771H11.7403Z" fill="#494949"/>
</g>
<defs>
<clipPath id="clip0_5_105">
<rect width="24" height="24" fill="white"/>
</clipPath>
</defs>
</svg>
