<svg width="20" height="20" viewBox="0 0 20 20" fill="none" xmlns="http://www.w3.org/2000/svg">
<path d="M19.9146 0.553977C20.0754 0.942235 20.0092 1.27367 19.716 1.5483L12.7233 8.55114V19.0909C12.7233 19.4886 12.5389 19.768 12.1701 19.929C12.0472 19.9763 11.929 20 11.8155 20C11.5602 20 11.3475 19.91 11.1773 19.7301L7.54617 16.0938C7.36651 15.9138 7.27668 15.7008 7.27668 15.4545V8.55114L0.283975 1.5483C-0.00916047 1.27367 -0.0753524 0.942235 0.0853994 0.553977C0.246151 0.184659 0.525103 0 0.922254 0H19.0777C19.4749 0 19.7539 0.184659 19.9146 0.553977Z" fill="#646464"/>
</svg>
