<svg width="30" height="30" viewBox="0 0 30 30" fill="none" xmlns="http://www.w3.org/2000/svg">
<path d="M15.0015 0.00102573C6.71646 0.00102573 0 6.88745 0 15.3821C0 22.1362 4.24656 27.8749 10.1517 29.9417L10.2578 29.9735C11.008 30.1181 11.2831 29.6432 11.2831 29.234C11.2831 28.8688 11.2711 27.9006 11.2641 26.6195C7.0916 27.5477 6.21128 24.5558 6.21128 24.5558C5.92317 23.6071 5.33296 22.8276 4.55767 22.3157L4.54167 22.3065C3.18317 21.3526 4.6467 21.3721 4.6467 21.3721C5.63407 21.5147 6.46137 22.1085 6.93654 22.9414L6.94455 22.9568C7.49875 23.9773 8.54513 24.6563 9.74657 24.6563C10.3228 24.6563 10.863 24.5004 11.3292 24.2266L11.3131 24.2348C11.3852 23.4235 11.7343 22.7075 12.2625 22.1783L12.2635 22.1773C8.93228 21.7926 5.42999 20.4695 5.42999 14.577C5.42999 14.5493 5.42899 14.5175 5.42899 14.4857C5.42899 12.9256 6.01621 11.5061 6.97656 10.4466L6.97356 10.4507C6.77048 9.89474 6.65244 9.25267 6.65244 8.5829C6.65244 7.78594 6.8185 7.02796 7.11761 6.34486L7.1036 6.37973C7.1036 6.37973 8.36007 5.96741 11.2291 7.95621C12.3535 7.62696 13.645 7.43721 14.9795 7.43721C16.314 7.43721 17.6055 7.62696 18.8299 7.98082L18.7299 7.95621C21.5799 5.96741 22.8364 6.37973 22.8364 6.37973C23.1215 7.03822 23.2875 7.80543 23.2875 8.61264C23.2875 9.27113 23.1775 9.90295 22.9744 10.4896L22.9864 10.4507C23.9398 11.5092 24.525 12.9287 24.525 14.4888C24.525 14.5206 24.525 14.5513 24.524 14.5821V14.577C24.524 20.4859 21.0177 21.7865 17.6795 22.165C18.3117 22.8286 18.7019 23.7363 18.7019 24.7384C18.7019 24.8338 18.6979 24.9292 18.6909 25.0235L18.6919 25.0112C18.6919 27.0698 18.6728 28.7232 18.6728 29.2227C18.6728 29.6268 18.9349 30.1068 19.7042 29.953C25.7344 27.8718 30 22.128 30 15.3616C30 6.87719 23.2915 0 15.0175 0C15.0115 0 15.0045 0 14.9985 0H14.9995L15.0015 0.00102573Z" fill="#646464"/>
</svg>
