<svg width="30" height="30" viewBox="0 0 30 30" fill="none" xmlns="http://www.w3.org/2000/svg">
<path fill-rule="evenodd" clip-rule="evenodd" d="M4.3934 4.3934C7.20644 1.58035 11.0218 0 15 0C18.9782 0 22.7936 1.58035 25.6066 4.3934C28.4196 7.20644 30 11.0218 30 15C30 18.9782 28.4196 22.7936 25.6066 25.6066C22.7936 28.4196 18.9782 30 15 30C11.0218 30 7.20644 28.4196 4.3934 25.6066C1.58035 22.7936 0 18.9782 0 15C0 11.0218 1.58035 7.20644 4.3934 4.3934ZM10.5 11.25H7.5V22.5H10.5V11.25ZM8.9745 9.75H8.991C9.921 9.75 10.5 9.0825 10.5 8.24925C10.4827 7.398 9.921 6.75 9.00825 6.75C8.097 6.75 7.5 7.398 7.5 8.24925C7.5 9.0825 8.079 9.75 8.9745 9.75ZM19.125 11.25C21.4035 11.25 23.25 13.0965 23.25 15.375V22.5H20.25V16.5C20.25 15.2572 19.2428 14.25 18 14.25C16.7572 14.25 15.75 15.2572 15.75 16.5V22.5H12.75V11.25H15.75V13.008C16.4963 11.946 17.7285 11.25 19.125 11.25Z" fill="#646464"/>
</svg>
